<?xml version="1.0" encoding="UTF-8"?>
<svg version="1.1" xmlns="http://www.w3.org/2000/svg" width="360" height="140">
<path d="M0 0 C1.24122192 0.90027586 2.4756395 1.81057326 3.6875 2.75 C4.0175 -0.22 4.3475 -3.19 4.6875 -6.25 C24.8175 -6.25 44.9475 -6.25 65.6875 -6.25 C67.9975 2.33 70.3075 10.91 72.6875 19.75 C74.94981606 11.56851079 74.94981606 11.56851079 77.20483398 3.38500977 C77.62744507 1.86605103 77.62744507 1.86605103 78.05859375 0.31640625 C78.34661865 -0.72572021 78.63464355 -1.76784668 78.93139648 -2.84155273 C79.6875 -5.25 79.6875 -5.25 80.6875 -6.25 C82.58993762 -6.34391296 84.49588459 -6.36743658 86.40063477 -6.36352539 C87.6218251 -6.36344986 88.84301544 -6.36337433 90.10121155 -6.36329651 C91.44377686 -6.35818911 92.78634175 -6.35297311 94.12890625 -6.34765625 C95.49511158 -6.34579199 96.86131757 -6.34436813 98.2275238 -6.34336853 C101.82951695 -6.33954394 105.43147 -6.32971417 109.03344727 -6.31866455 C112.70653745 -6.30844916 116.37963409 -6.30387064 120.05273438 -6.29882812 C127.26434334 -6.28809184 134.47591095 -6.27049553 141.6875 -6.25 C142.0175 -2.29 142.3475 1.67 142.6875 5.75 C143.780625 4.698125 144.87375 3.64625 146 2.5625 C156.14137014 -6.3337553 167.560696 -8.02298659 180.63037109 -7.42041016 C190.70561722 -6.58578853 199.341513 -2.07728181 206.6875 4.75 C207.0175 5.74 207.3475 6.73 207.6875 7.75 C208.3475 7.75 209.0075 7.75 209.6875 7.75 C209.955625 7.151875 210.22375 6.55375 210.5 5.9375 C214.23922335 -0.950543 221.52806613 -4.00548295 228.6875 -6.25 C239.10769744 -9.04475988 253.9187284 -8.9051547 263.6875 -4.25 C264.97527344 -3.64671875 264.97527344 -3.64671875 266.2890625 -3.03125 C273.71891994 0.91380705 277.95727267 5.75668233 280.71484375 13.71484375 C282.29663626 19.49531132 283.032339 24.77279064 282.6875 30.75 C280.7075 31.08 278.7275 31.41 276.6875 31.75 C277.08582031 32.21148437 277.48414063 32.67296875 277.89453125 33.1484375 C283.33992143 39.85249451 286.07663347 46.39383617 285.75 55.125 C284.79946452 62.46814775 281.78348232 70.14406222 276.046875 74.97265625 C275.26828125 75.55917969 274.4896875 76.14570312 273.6875 76.75 C273.3575 77.41 273.0275 78.07 272.6875 78.75 C273.265 78.976875 273.8425 79.20375 274.4375 79.4375 C279.4460218 82.35913772 281.53526957 86.86922681 283.14453125 92.23046875 C284.93892947 100.55699285 284.09793916 108.38637204 279.6875 115.75 C274.1130193 122.13027056 267.97656858 124.12190713 259.6875 124.75 C255.11365488 124.85741603 250.54244286 124.85089578 245.96783638 124.82516479 C243.65017403 124.81227061 241.3325697 124.80585242 239.01487732 124.80102539 C233.26057935 124.78773454 227.50633708 124.7635263 221.7520752 124.73962402 C216.87965636 124.71980288 212.00725838 124.70420092 207.13480949 124.69406128 C204.86551487 124.68763898 202.59630799 124.67513282 200.32704163 124.66235352 C193.3602569 124.63841128 186.60129544 124.88440088 179.6875 125.75 C176.62109375 125.19140625 176.62109375 125.19140625 174.125 124.3125 C173.27808594 124.02503906 172.43117187 123.73757812 171.55859375 123.44140625 C170.94113281 123.21324219 170.32367188 122.98507813 169.6875 122.75 C169.6875 123.41 169.6875 124.07 169.6875 124.75 C165.15265136 124.84972601 160.6184568 124.92186655 156.08276367 124.96972656 C154.54358789 124.98970121 153.00448662 125.01689097 151.46557617 125.05175781 C135.96489087 125.39386966 135.96489087 125.39386966 129.35546875 121.61010742 C126.55437489 120.1656909 124.59691944 120.82146188 121.6875 121.75 C119.64861748 122.47732066 117.62604875 123.22447841 115.6171875 124.03125 C111.54888143 125.54657048 108.49721866 125.78991358 104.15332031 125.33227539 C98.17229225 124.76754143 92.23900457 124.53746394 86.234375 124.43359375 C85.20814026 124.41281265 84.18190552 124.39203156 83.12457275 124.37062073 C79.89560638 124.30603709 76.66656961 124.24667143 73.4375 124.1875 C71.22785775 124.1442277 69.01822222 124.10061089 66.80859375 124.05664062 C61.43496513 123.95045148 56.06126684 123.84893686 50.6875 123.75 C50.6875 120.12 50.6875 116.49 50.6875 112.75 C49.6975 113.245 49.6975 113.245 48.6875 113.75 C46.0151379 113.88415472 43.36499512 113.79318541 40.6875 113.75 C40.6875 117.05 40.6875 120.35 40.6875 123.75 C39.81941711 123.74777939 38.95133423 123.74555878 38.0569458 123.74327087 C29.87601699 123.72323368 21.69509642 123.70800834 13.51414871 123.69818783 C9.30824995 123.69296929 5.10237147 123.68589029 0.89648438 123.67456055 C-3.16242929 123.66369514 -7.22132346 123.6577154 -11.28025055 123.65512276 C-12.82879188 123.65327511 -14.37733215 123.64966714 -15.92586517 123.64426994 C-18.09480598 123.63701106 -20.26366619 123.63601111 -22.43261719 123.63647461 C-23.66727722 123.634254 -24.90193726 123.63203339 -26.17401123 123.62974548 C-28.79199775 123.73005641 -30.82101232 124.04759177 -33.3125 124.75 C-51.68932245 125.79436587 -51.68932245 125.79436587 -58.3125 121.75 C-61.62641834 118.7674735 -63.89776307 115.99421078 -65.3125 111.75 C-65.39757079 109.0184044 -65.42841565 106.31308557 -65.41015625 103.58203125 C-65.4087413 102.78721848 -65.40732635 101.9924057 -65.40586853 101.17350769 C-65.40027378 98.63646675 -65.38772228 96.09951425 -65.375 93.5625 C-65.36998432 91.84179815 -65.36542153 90.12109492 -65.36132812 88.40039062 C-65.35030607 84.1835597 -65.33304506 79.96679484 -65.3125 75.75 C-60.3625 75.255 -60.3625 75.255 -55.3125 74.75 C-55.84359375 74.193125 -56.3746875 73.63625 -56.921875 73.0625 C-67.27207019 61.88126724 -70.9332051 50.23747769 -70.53125 34.9296875 C-70.25571214 30.92454792 -69.67816449 27.51635892 -68.3125 23.75 C-68.00570312 22.82703125 -67.69890625 21.9040625 -67.3828125 20.953125 C-63.06030976 9.2078417 -55.56224472 1.30756653 -44.43359375 -4.17578125 C-30.38895248 -10.57625492 -12.68765733 -8.33986198 0 0 Z " fill="#0B1C2F" transform="translate(71.3125,10.25)"/>
<path d="M0 0 C5.53883399 5.95424654 6.44550156 9.25151252 7.5 17.6875 C-0.09 17.6875 -7.68 17.6875 -15.5 17.6875 C-15.995 15.7075 -15.995 15.7075 -16.5 13.6875 C-20.85378764 10.91690787 -24.65990481 11.86714488 -29.5 12.6875 C-29.83 14.3375 -30.16 15.9875 -30.5 17.6875 C-23.98123598 20.7188594 -17.29277666 22.45828305 -10.32617188 24.17382812 C-1.94558041 26.41310275 4.56684948 30.38643723 9.5 37.6875 C11.67312213 44.20686639 11.31835911 50.7660098 8.4375 57 C4.34166722 64.19908212 -1.07309282 68.39488015 -8.94140625 70.9921875 C-20.04789839 73.16228146 -33.56435088 73.72356241 -43.5 67.6875 C-45.170625 66.7284375 -45.170625 66.7284375 -46.875 65.75 C-51.84000843 61.84892195 -54.41317075 57.63496337 -56.5 51.6875 C-56.5 49.7075 -56.5 47.7275 -56.5 45.6875 C-48.91 45.6875 -41.32 45.6875 -33.5 45.6875 C-32.84 47.6675 -32.18 49.6475 -31.5 51.6875 C-28.62974396 53.84019203 -26.0224686 53.95897847 -22.5 53.9375 C-21.654375 53.94265625 -20.80875 53.9478125 -19.9375 53.953125 C-17.36521189 53.67281155 -15.7196892 52.9823187 -13.5 51.6875 C-13.24969023 49.27130177 -13.24969023 49.27130177 -13.5 46.6875 C-16.25664322 44.84973785 -17.87644842 44.18799267 -21 43.390625 C-46.1347616 36.75289963 -46.1347616 36.75289963 -52.1875 28.0625 C-55.68227227 21.37597039 -55.62509994 14.58784647 -53.5625 7.4375 C-48.50257458 0.69093278 -43.02418367 -4.1153535 -34.6484375 -5.91015625 C-22.80929335 -7.42309899 -9.99374339 -7.50773757 0 0 Z " fill="#F4CD40" transform="translate(338.5,16.3125)"/>
<path d="M0 0 C5.8167808 4.74497474 9.85989414 10.41781299 12.03515625 17.66015625 C12.03515625 19.31015625 12.03515625 20.96015625 12.03515625 22.66015625 C4.77515625 22.66015625 -2.48484375 22.66015625 -9.96484375 22.66015625 C-11.28484375 20.02015625 -12.60484375 17.38015625 -13.96484375 14.66015625 C-18.83273614 12.22621005 -22.60673969 11.56149138 -27.96484375 12.66015625 C-31.80676985 15.31030119 -33.58067751 18.73466486 -35.33984375 22.97265625 C-36.68590573 30.91442191 -36.63928858 38.32573291 -32.96484375 45.66015625 C-30.73738108 48.26791742 -29.02163897 50.13175864 -25.96484375 51.66015625 C-22.38114122 51.93062437 -19.6619433 51.91954213 -16.27734375 50.66015625 C-13.06520878 48.14077347 -13.06520878 48.14077347 -9.96484375 40.66015625 C-2.70484375 40.66015625 4.55515625 40.66015625 12.03515625 40.66015625 C10.70249898 51.32141439 7.90649807 58.14452249 -0.54296875 64.96484375 C-9.84490198 71.47619701 -19.92927797 71.88867361 -30.96484375 70.66015625 C-34.68883912 69.8253059 -37.69482252 68.61122839 -40.96484375 66.66015625 C-42.03605469 66.02400391 -42.03605469 66.02400391 -43.12890625 65.375 C-48.52329749 61.7484336 -51.83174524 57.29602575 -54.96484375 51.66015625 C-55.37992188 50.97953125 -55.795 50.29890625 -56.22265625 49.59765625 C-59.25983833 43.6507263 -59.37943721 37.64549068 -59.46484375 31.09765625 C-59.48337402 30.21110352 -59.5019043 29.32455078 -59.52099609 28.41113281 C-59.42256344 18.01587302 -54.80166212 9.67902755 -47.83984375 2.09765625 C-34.6626734 -10.71032614 -14.44977933 -10.37224019 0 0 Z " fill="#F5CD40" transform="translate(268.96484375,17.33984375)"/>
<path d="M0 0 C8.17403296 6.3835305 10.72951628 12.83613024 12 23 C4.74 23 -2.52 23 -10 23 C-11.32 20.36 -12.64 17.72 -14 15 C-18.66706606 12.66646697 -21.88034539 12.1733891 -27 13 C-31.61610925 15.56450514 -33.20286658 17.78004789 -34.875 22.75 C-36.90268425 30.89694565 -36.7608895 38.35976778 -33 46 C-30.77253733 48.60776117 -29.05679522 50.47160239 -26 52 C-22.41629747 52.27046812 -19.69709955 52.25938588 -16.3125 51 C-13.10036503 48.48061722 -13.10036503 48.48061722 -10 41 C-2.74 41 4.52 41 12 41 C12 49.16276931 9.24727175 55.17749725 3.94921875 61.4140625 C-4.58549873 69.50915866 -12.90449097 71.59423948 -24.37988281 71.4753418 C-30.54509159 71.24055678 -35.62155766 70.14860828 -41 67 C-41.64066406 66.63777344 -42.28132813 66.27554688 -42.94140625 65.90234375 C-49.9967051 61.40706695 -55.1155815 53.78053401 -58 46 C-60.68129167 33.48730554 -60.54779171 21.13214987 -54.05078125 9.9609375 C-48.36043021 1.74515448 -41.41406668 -4.14648333 -31.53125 -6.6171875 C-19.94528431 -8.36938602 -9.9215228 -6.11800264 0 0 Z " fill="#F5CD40" transform="translate(68,17)"/>
<path d="M0 0 C7.26 0 14.52 0 22 0 C25.375 9 25.375 9 26.25854492 12.58007812 C26.55851631 13.78041687 26.55851631 13.78041687 26.86454773 15.00500488 C27.16942863 16.25549622 27.16942863 16.25549622 27.48046875 17.53125 C27.80704216 18.84603333 27.80704216 18.84603333 28.14021301 20.18737793 C28.82711208 22.95716865 29.50740992 25.72853047 30.1875 28.5 C30.65516165 30.39073322 31.12325645 32.28135936 31.59179688 34.171875 C32.73287428 38.78002759 33.86803884 43.38959999 35 48 C35.16081055 47.351521 35.32162109 46.70304199 35.48730469 46.03491211 C43.75130073 12.74609781 43.75130073 12.74609781 48 0 C55.59 0 63.18 0 71 0 C67.62620947 12.37056527 67.62620947 12.37056527 66.203125 16.76953125 C65.72999878 18.2390625 65.72999878 18.2390625 65.24731445 19.73828125 C64.91820068 20.75277344 64.58908691 21.76726563 64.25 22.8125 C63.54024835 25.01688966 62.83061524 27.22131749 62.12109375 29.42578125 C61.58911377 31.07441162 61.58911377 31.07441162 61.04638672 32.75634766 C56.51926582 46.7897887 52.10029372 60.83534896 48 75 C39.42 75 30.84 75 22 75 C21.236875 72.380625 20.47375 69.76125 19.6875 67.0625 C17.5967091 59.93288292 15.34351161 52.88987837 12.91796875 45.8671875 C9.51063088 35.85069585 6.58004575 25.72817518 3.72949219 15.54052734 C2.72733024 12.05040111 1.64633811 8.58555366 0.55517578 5.12231445 C0 3 0 3 0 0 Z " fill="#F5CD40" transform="translate(109,12)"/>
<path d="M0 0 C7.59 0 15.18 0 23 0 C23 24.75 23 49.5 23 75 C15.41 75 7.82 75 0 75 C0 50.25 0 25.5 0 0 Z " fill="#F1CA40" transform="translate(183,12)"/>
<path d="M0 0 C7.59 0 15.18 0 23 0 C23 24.75 23 49.5 23 75 C15.41 75 7.82 75 0 75 C0 50.25 0 25.5 0 0 Z " fill="#F1CA40" transform="translate(83,12)"/>
<path d="M0 0 C5.6925 -0.12375 5.6925 -0.12375 11.5 -0.25 C12.68013672 -0.28641602 13.86027344 -0.32283203 15.07617188 -0.36035156 C21.53433682 -0.42794208 26.75464979 -0.03821252 32 4 C36.12914372 8.79144202 35.55113721 14.36932147 35.34375 20.3828125 C34.88305599 25.23056997 34.22754688 27.35866505 31 31 C24.67419004 34.65281146 18.72158646 34.35191503 11.5625 34.1875 C5.8390625 34.0946875 5.8390625 34.0946875 0 34 C0 22.78 0 11.56 0 0 Z " fill="#F89E74" transform="translate(312,93)"/>
<path d="M0 0 C4.29 0 8.58 0 13 0 C15.86045063 3.26191738 17.25678196 5.23988464 19 9 C19.78116052 10.36025428 20.57161929 11.71524987 21.375 13.0625 C21.91125 14.031875 22.4475 15.00125 23 16 C23.33 10.72 23.66 5.44 24 0 C27.63 0 31.26 0 35 0 C35 11.22 35 22.44 35 34 C23 34 23 34 20.4375 32.05859375 C19.963125 31.19363281 19.48875 30.32867187 19 29.4375 C18.2575 28.16712891 18.2575 28.16712891 17.5 26.87109375 C17.005 25.92363281 16.51 24.97617188 16 24 C14.68 21.69 13.36 19.38 12 17 C11.67 22.61 11.34 28.22 11 34 C7.37 34 3.74 34 0 34 C0 22.78 0 11.56 0 0 Z " fill="#F79D73" transform="translate(52,93)"/>
<path d="M0 0 C4.29 0 8.58 0 13 0 C13.06058594 1.79308594 13.12117188 3.58617188 13.18359375 5.43359375 C13.26797849 7.76823824 13.35262751 10.10287319 13.4375 12.4375 C13.47681641 13.62150391 13.51613281 14.80550781 13.55664062 16.02539062 C13.61948242 17.71245117 13.61948242 17.71245117 13.68359375 19.43359375 C13.72025146 20.47572021 13.75690918 21.51784668 13.79467773 22.59155273 C13.73515341 24.9499826 13.73515341 24.9499826 15 26 C16.65 26 18.3 26 20 26 C20.33 17.42 20.66 8.84 21 0 C25.29 0 29.58 0 34 0 C34.08093399 4.22955053 34.1404757 8.45755211 34.1875 12.6875 C34.21263672 13.88568359 34.23777344 15.08386719 34.26367188 16.31835938 C34.27333984 17.47529297 34.28300781 18.63222656 34.29296875 19.82421875 C34.3086792 20.88729248 34.32438965 21.95036621 34.34057617 23.0456543 C33.84880352 27.3115617 32.20471708 29.94587256 29 32.75 C23.15561114 36.40274304 15.63435577 35.51249521 9 35 C5.4499922 33.91761216 2.94660897 32.43091124 0.84423828 29.25292969 C-0.26027996 26.30541833 -0.22498528 23.84843976 -0.1953125 20.703125 C-0.18886719 19.49785156 -0.18242187 18.29257813 -0.17578125 17.05078125 C-0.15064453 15.16939453 -0.15064453 15.16939453 -0.125 13.25 C-0.11597656 11.98027344 -0.10695313 10.71054688 -0.09765625 9.40234375 C-0.07409087 6.26814871 -0.03822013 3.13405059 0 0 Z " fill="#F59C73" transform="translate(13,93)"/>
<path d="M0 0 C2.80125118 1.54246109 3.50236711 2.37855067 5.375 5.1875 C5.5 8.375 5.5 8.375 5.375 11.1875 C2.49288698 12.14820434 0.67649956 12.29331883 -2.3125 12.25 C-3.52486328 12.23646484 -3.52486328 12.23646484 -4.76171875 12.22265625 C-5.68404297 12.20525391 -5.68404297 12.20525391 -6.625 12.1875 C-6.955 10.2075 -7.285 8.2275 -7.625 6.1875 C-10.09766765 6.53194881 -10.09766765 6.53194881 -12.625 7.1875 C-14.04380263 10.02510526 -13.7570472 12.46432975 -13.75 15.625 C-13.75257813 16.77871094 -13.75515625 17.93242188 -13.7578125 19.12109375 C-13.76395922 22.22875667 -13.76395922 22.22875667 -12.625 25.1875 C-10.645 25.1875 -8.665 25.1875 -6.625 25.1875 C-5.965 23.8675 -5.305 22.5475 -4.625 21.1875 C-5.945 21.1875 -7.265 21.1875 -8.625 21.1875 C-8.625 19.2075 -8.625 17.2275 -8.625 15.1875 C-3.675 15.1875 1.275 15.1875 6.375 15.1875 C6.375 21.1275 6.375 27.0675 6.375 33.1875 C4.395 33.1875 2.415 33.1875 0.375 33.1875 C0.375 32.5275 0.375 31.8675 0.375 31.1875 C-0.5325 31.6825 -1.44 32.1775 -2.375 32.6875 C-7.65430934 34.90416741 -13.01074828 35.10957578 -18.625 34.1875 C-22.76497196 32.23160773 -25.72351231 29.95796272 -27.81640625 25.84765625 C-29.58018519 20.04507917 -29.62858543 12.98080693 -27.5 7.25 C-21.61554356 -2.36127885 -10.13349681 -4.8715159 0 0 Z " fill="#F49B73" transform="translate(265.625,93.8125)"/>
<path d="M0 0 C3.62699466 1.70139022 5.25080458 2.78636312 7.5234375 6.1953125 C7.6484375 9.3828125 7.6484375 9.3828125 7.5234375 12.1953125 C4.77264866 13.11224211 3.16394837 13.30417333 0.3359375 13.2578125 C-1.55125 13.226875 -1.55125 13.226875 -3.4765625 13.1953125 C-4.1365625 11.2153125 -4.7965625 9.2353125 -5.4765625 7.1953125 C-7.94923015 7.53976131 -7.94923015 7.53976131 -10.4765625 8.1953125 C-11.89350007 11.02918765 -11.6464638 13.47560623 -11.6640625 16.6328125 C-11.68533203 18.36337891 -11.68533203 18.36337891 -11.70703125 20.12890625 C-11.71581338 23.36811418 -11.71581338 23.36811418 -9.4765625 26.1953125 C-6.39290379 26.4455282 -6.39290379 26.4455282 -3.4765625 26.1953125 C-3.1465625 24.8753125 -2.8165625 23.5553125 -2.4765625 22.1953125 C-3.4665625 22.1953125 -4.4565625 22.1953125 -5.4765625 22.1953125 C-5.4765625 20.2153125 -5.4765625 18.2353125 -5.4765625 16.1953125 C-0.8565625 16.1953125 3.7634375 16.1953125 8.5234375 16.1953125 C8.5234375 22.1353125 8.5234375 28.0753125 8.5234375 34.1953125 C6.5434375 34.1953125 4.5634375 34.1953125 2.5234375 34.1953125 C2.5234375 33.5353125 2.5234375 32.8753125 2.5234375 32.1953125 C1.5953125 32.6903125 0.6671875 33.1853125 -0.2890625 33.6953125 C-5.79349103 36.02883291 -11.85832169 36.25479738 -17.59765625 34.57421875 C-21.74674233 32.56659645 -24.0406647 29.71811692 -25.81640625 25.60546875 C-27.44265212 19.6682279 -27.73263841 12.89300343 -24.9765625 7.2578125 C-18.40806087 -0.78860199 -10.11098186 -3.28527171 0 0 Z " fill="#F59C73" transform="translate(224.4765625,92.8046875)"/>
<path d="M0 0 C4.29 0 8.58 0 13 0 C13.33 8.91 13.66 17.82 14 27 C16.31 26.34 18.62 25.68 21 25 C21.33 16.75 21.66 8.5 22 0 C25.96 0 29.92 0 34 0 C34.13483705 4.5634852 34.23407207 9.12299441 34.3125 13.6875 C34.35439453 14.98107422 34.39628906 16.27464844 34.43945312 17.60742188 C34.45556641 18.85458984 34.47167969 20.10175781 34.48828125 21.38671875 C34.51446533 22.53358154 34.54064941 23.68044434 34.56762695 24.86206055 C33.82679806 28.95749014 32.15564234 30.38590547 29 33 C24.92493478 35.23755661 21.16668359 35.3286336 16.5625 35.375 C15.28503906 35.40335938 14.00757813 35.43171875 12.69140625 35.4609375 C8.35552273 34.91952559 6.32312529 33.80194449 3 31 C0.19883044 27.17137603 -0.36256267 24.53340765 -0.29296875 19.82421875 C-0.28330078 18.66728516 -0.27363281 17.51035156 -0.26367188 16.31835938 C-0.23853516 15.12017578 -0.21339844 13.92199219 -0.1875 12.6875 C-0.17396484 11.46998047 -0.16042969 10.25246094 -0.14648438 8.99804688 C-0.11119568 5.99850807 -0.05739074 2.99919734 0 0 Z " fill="#F89D74" transform="translate(160,93)"/>
<path d="M0 0 C6.0328125 -0.0928125 6.0328125 -0.0928125 12.1875 -0.1875 C14.07698364 -0.22846802 14.07698364 -0.22846802 16.00463867 -0.27026367 C17.50861206 -0.28150269 17.50861206 -0.28150269 19.04296875 -0.29296875 C20.06414795 -0.3086792 21.08532715 -0.32438965 22.13745117 -0.34057617 C26.22173837 0.14535821 28.79544515 1.92005428 31.8125 4.625 C33.68400019 8.36800039 33.64595377 11.90422721 33 16 C30.93505543 20.05614112 29.26610406 22.41482092 25 24 C21.765625 24.1953125 21.765625 24.1953125 18.25 24.125 C17.07953125 24.10695313 15.9090625 24.08890625 14.703125 24.0703125 C13.81109375 24.04710938 12.9190625 24.02390625 12 24 C12 27.3 12 30.6 12 34 C8.04 34 4.08 34 0 34 C0 22.78 0 11.56 0 0 Z " fill="#F99E74" transform="translate(93,93)"/>
<path d="M0 0 C9.57 0 19.14 0 29 0 C29 2.64 29 5.28 29 8 C23.72 8 18.44 8 13 8 C13 9.65 13 11.3 13 13 C17.62 13 22.24 13 27 13 C27 15.31 27 17.62 27 20 C22.38 20 17.76 20 13 20 C13 21.98 13 23.96 13 26 C18.94 26 24.88 26 31 26 C31 28.64 31 31.28 31 34 C20.77 34 10.54 34 0 34 C0 22.78 0 11.56 0 0 Z " fill="#F79D74" transform="translate(277,93)"/>
<path d="M0 0 C3.96 0 7.92 0 12 0 C12 8.58 12 17.16 12 26 C17.28 26 22.56 26 28 26 C28 28.64 28 31.28 28 34 C18.76 34 9.52 34 0 34 C0 22.78 0 11.56 0 0 Z " fill="#FB9F75" transform="translate(130,93)"/>
<path d="M0 0 C4.875 0.875 4.875 0.875 6 2 C6.04063832 3.66617115 6.042721 5.33388095 6 7 C8.43387753 8.21693876 10.41838846 8.31959896 13.125 8.5625 C14.03507812 8.64628906 14.94515625 8.73007813 15.8828125 8.81640625 C16.93082031 8.90728516 16.93082031 8.90728516 18 9 C18 9.33 18 9.66 18 10 C13.38 10 8.76 10 4 10 C4 11.98 4 13.96 4 16 C4.99 16 5.98 16 7 16 C6.67 17.65 6.34 19.3 6 21 C3.1875 21.25 3.1875 21.25 0 21 C-2.41797073 18.67784629 -2.96760799 17.25151443 -3.3984375 13.90625 C-3.39070312 12.7821875 -3.38296875 11.658125 -3.375 10.5 C-3.38273438 9.3759375 -3.39046875 8.251875 -3.3984375 7.09375 C-2.97209801 3.78334928 -2.23700419 2.41454421 0 0 Z " fill="#1D2535" transform="translate(215,99)"/>
<path d="M0 0 C1.65 0.33 3.3 0.66 5 1 C5 2.98 5 4.96 5 7 C9.29 7.66 13.58 8.32 18 9 C18 9.33 18 9.66 18 10 C13.05 10 8.1 10 3 10 C3 11.98 3 13.96 3 16 C4.32 16 5.64 16 7 16 C6.125 19.875 6.125 19.875 5 21 C3.00041636 21.04080783 0.99954746 21.04254356 -1 21 C-3.16072379 17.48774778 -3.29845673 14.58190932 -3.3125 10.5 C-3.32925781 9.3759375 -3.34601563 8.251875 -3.36328125 7.09375 C-2.97238323 3.76481203 -2.24878465 2.42085524 0 0 Z " fill="#162233" transform="translate(254,99)"/>
<path d="M0 0 C2.31 0 4.62 0 7 0 C8.93726484 3.26479293 9.29708488 5.78579661 9.3125 9.5625 C9.32925781 10.51253906 9.34601563 11.46257812 9.36328125 12.44140625 C9 15 9 15 7.85546875 16.83984375 C6 18 6 18 0 18 C0 12.06 0 6.12 0 0 Z " fill="#0C1C30" transform="translate(325,101)"/>
<path d="M0 0 C5.625 -0.25 5.625 -0.25 9 2 C9.43566323 4.83181098 9.39684676 6.36063578 7.875 8.8125 C5.22464043 10.49106106 3.06753576 10.20450238 0 10 C0 6.7 0 3.4 0 0 Z " fill="#272B37" transform="translate(105,100)"/>
</svg>
