<?xml version="1.0" standalone="no"?>
<!DOCTYPE svg PUBLIC "-//W3C//DTD SVG 20010904//EN"
 "http://www.w3.org/TR/2001/REC-SVG-20010904/DTD/svg10.dtd">
<svg version="1.0" xmlns="http://www.w3.org/2000/svg"
 width="421.000000pt" height="120.000000pt" viewBox="0 0 421.000000 120.000000"
 preserveAspectRatio="xMidYMid meet">

<g transform="translate(0.000000,120.000000) scale(0.100000,-0.100000)"
fill="#000000" stroke="none">
<path d="M195 1188 c-16 -6 -41 -21 -56 -34 -33 -31 -39 -30 -39 6 0 28 -2 30
-40 30 l-40 0 0 -210 0 -210 58 0 57 0 0 131 0 131 33 29 c48 43 101 39 127
-12 11 -20 15 -63 15 -154 l0 -125 60 0 60 0 0 114 c0 125 10 167 45 190 29
19 74 20 96 3 32 -25 39 -56 39 -181 l0 -126 61 0 61 0 -4 153 c-3 144 -5 156
-28 190 -63 92 -187 110 -270 40 l-30 -25 -30 26 c-50 41 -116 54 -175 34z"/>
<path d="M973 1191 c-113 -29 -187 -138 -168 -250 29 -172 256 -241 387 -119
105 99 78 282 -52 348 -44 22 -122 32 -167 21z m101 -111 c14 -5 35 -24 47
-42 46 -75 -6 -168 -95 -168 -38 0 -48 5 -76 37 -28 32 -32 41 -27 80 9 81 76
122 151 93z"/>
<path d="M1473 1189 c-38 -11 -42 -31 -16 -69 43 -62 99 -90 178 -90 31 0 69
7 86 15 28 15 29 17 14 44 -22 43 -70 79 -127 96 -58 17 -88 18 -135 4z"/>
<path d="M2035 1195 c-5 -2 -22 -6 -37 -9 -14 -3 -40 -20 -57 -37 l-31 -31 0
36 c0 36 0 36 -45 36 l-45 0 0 -210 0 -210 60 0 60 0 0 116 c0 84 4 125 15
149 28 58 104 74 147 30 32 -32 38 -62 38 -191 l0 -104 61 0 62 0 -5 143 c-5
155 -15 193 -64 239 -38 34 -119 57 -159 43z"/>
<path d="M2465 1189 c-46 -11 -101 -60 -108 -96 -7 -39 11 -90 40 -113 15 -12
60 -31 101 -43 81 -24 103 -45 75 -72 -20 -21 -97 -14 -152 14 l-36 19 -23
-41 c-22 -39 -22 -42 -5 -54 57 -43 200 -55 269 -24 55 25 74 54 74 115 0 70
-29 98 -137 131 -75 23 -84 28 -81 48 2 18 10 23 47 25 24 2 61 -4 82 -12 22
-9 42 -16 44 -16 8 0 45 63 45 76 0 32 -161 61 -235 43z"/>
<path d="M3475 1191 c-205 -53 -239 -320 -51 -407 100 -47 209 -25 278 56 51
58 65 121 44 193 -9 30 -25 66 -37 80 -47 61 -158 98 -234 78z m111 -120 c92
-56 49 -201 -60 -201 -65 1 -106 45 -106 115 0 29 8 45 34 71 40 40 83 45 132
15z"/>
<path d="M2800 980 l0 -210 55 0 55 0 0 80 0 80 95 0 95 0 0 -80 0 -80 55 0
55 0 0 210 0 210 -55 0 -55 0 0 -85 0 -85 -95 0 -95 0 0 85 0 85 -55 0 -55 0
0 -210z"/>
<path d="M3810 1145 l0 -45 70 0 70 0 0 -165 0 -165 50 0 50 0 0 165 0 165 70
0 70 0 0 45 0 45 -190 0 -190 0 0 -45z"/>
<path d="M1353 1107 c-44 -65 -54 -130 -32 -198 41 -122 189 -183 309 -128 56
25 86 53 111 101 22 42 35 113 23 121 -5 3 -33 -2 -61 -11 -44 -14 -55 -22
-64 -49 -21 -65 -94 -92 -158 -59 -45 24 -66 99 -40 148 9 16 7 24 -9 41 -11
12 -25 32 -31 45 -15 29 -22 28 -48 -11z"/>
<path d="M851 585 c-52 -30 -51 -30 -51 -5 0 17 -7 20 -50 20 l-50 0 0 -300 0
-300 60 0 60 0 0 115 0 114 36 -24 c51 -35 140 -35 199 -1 108 63 130 250 42
344 -61 65 -168 81 -246 37z m113 -89 c45 -19 66 -52 66 -102 0 -80 -78 -134
-150 -104 -40 17 -62 54 -62 107 0 36 6 51 28 74 23 24 36 31 77 38 4 0 23 -5
41 -13z"/>
<path d="M1590 599 c-14 -5 -35 -21 -46 -36 l-22 -26 -7 32 c-6 30 -9 31 -56
31 l-49 0 0 -210 0 -210 60 0 60 0 0 113 c0 159 28 206 122 207 l36 0 4 55 3
55 -40 -1 c-22 0 -51 -5 -65 -10z"/>
<path d="M1853 594 c-134 -66 -164 -251 -58 -360 66 -69 164 -80 241 -28 43
30 44 30 44 -1 0 -24 3 -25 55 -25 l55 0 0 210 0 210 -60 0 c-47 0 -60 -3 -60
-15 0 -19 2 -19 -45 5 -48 24 -127 26 -172 4z m175 -110 c48 -31 57 -115 16
-163 -72 -86 -211 -18 -190 94 16 81 102 115 174 69z"/>
<path d="M2780 587 c-67 -35 -103 -93 -108 -171 -2 -35 1 -80 7 -99 15 -44 71
-103 118 -122 46 -20 163 -19 210 0 62 26 65 32 43 76 -11 21 -23 39 -26 39
-2 0 -16 -8 -31 -17 -37 -25 -125 -23 -159 3 -15 11 -34 30 -42 42 l-14 22
156 0 c179 0 175 -2 156 82 -23 108 -84 161 -194 166 -60 3 -78 0 -116 -21z
m171 -96 c16 -16 29 -34 29 -40 0 -7 -35 -11 -100 -11 -93 0 -100 1 -91 18 35
65 113 81 162 33z"/>
<path d="M3245 596 c-55 -25 -80 -62 -80 -118 0 -45 4 -53 33 -78 19 -15 59
-35 90 -45 83 -24 102 -33 102 -48 0 -48 -82 -49 -191 -3 -11 5 -20 -4 -34
-31 -11 -21 -21 -41 -23 -44 -1 -3 20 -16 47 -28 66 -28 187 -29 248 -2 69 32
94 112 54 177 -19 32 -59 51 -147 74 -52 13 -72 33 -54 55 17 21 77 18 129 -5
24 -11 45 -19 46 -18 17 28 45 81 43 83 -46 39 -206 58 -263 31z"/>
<path d="M1210 390 l0 -210 49 0 c32 0 51 5 54 14 3 7 6 102 7 210 l1 196 -56
0 -55 0 0 -210z"/>
<path d="M2260 555 l0 -45 70 0 70 0 0 -165 0 -165 50 0 50 0 0 165 0 165 75
0 75 0 0 45 0 45 -195 0 -195 0 0 -45z"/>
</g>
</svg>
