<svg xmlns="http://www.w3.org/2000/svg" width="200" height="200" viewBox="0 0 200 200" version="1.1"><path d="M 101.269 20.693 C 102.242 20.947, 103.592 20.930, 104.269 20.656 C 104.946 20.382, 104.150 20.175, 102.500 20.195 C 100.850 20.215, 100.296 20.439, 101.269 20.693 M 86.500 23.483 C 70.535 26.453, 58.732 32.560, 46.545 44.154 C 26.262 63.450, 17.679 92.151, 24.435 118.088 C 26.549 126.204, 30.016 135.005, 31.865 136.948 C 32.764 137.893, 33.633 139.253, 33.795 139.969 C 34.801 144.406, 47.858 158.591, 56.180 164.288 C 71.043 174.462, 93.296 179.739, 110.027 177.058 C 124.028 174.815, 135.659 170.164, 145.989 162.680 C 153.791 157.028, 167.667 140.888, 166.436 138.897 C 166.131 138.403, 166.347 138, 166.915 138 C 169.600 138, 175.290 121.849, 177.092 109.116 C 179.016 95.522, 176.717 81.033, 170.403 66.964 C 168.941 63.706, 167.427 61.236, 167.039 61.476 C 166.651 61.716, 166.333 61.334, 166.333 60.628 C 166.333 55.963, 148.956 38.310, 138.739 32.596 C 122.400 23.459, 103.938 20.238, 86.500 23.483 M 98 31.500 C 98 33.975, 98.450 36, 99 36 C 99.550 36, 100 33.975, 100 31.500 C 100 29.025, 99.550 27, 99 27 C 98.450 27, 98 29.025, 98 31.500 M 108 29.375 C 108 30.131, 107.719 32.156, 107.375 33.875 C 106.656 37.469, 108.588 38.289, 109.835 34.918 C 110.578 32.908, 110.645 32.925, 111.781 35.418 C 112.428 36.838, 113.396 38, 113.933 38 C 115.125 38, 116.370 31.902, 115.699 29.350 C 115.264 27.700, 115.134 27.743, 114.489 29.750 C 113.595 32.536, 112.338 32.641, 111.500 30 C 110.786 27.750, 108 27.252, 108 29.375 M 76.369 30.987 C 74.410 31.778, 74.325 32.178, 75.325 35.924 C 76.187 39.153, 76.878 40, 78.650 40 C 80.665 40, 84 36.744, 84 34.777 C 84 33.747, 80.207 29.983, 79.250 30.063 C 78.838 30.098, 77.541 30.514, 76.369 30.987 M 122.737 33.193 C 122.480 33.912, 122.670 35.277, 123.158 36.227 C 123.844 37.561, 123.699 37.822, 122.523 37.371 C 121.565 37.003, 121 37.358, 121 38.326 C 121 40.389, 124.728 41.471, 126.571 39.941 C 127.870 38.863, 127.870 38.450, 126.569 36.465 C 125.186 34.354, 125.224 34.246, 127.180 34.757 C 128.672 35.147, 129.136 34.903, 128.807 33.902 C 128.202 32.064, 123.344 31.497, 122.737 33.193 M 77.771 35.582 C 78.208 37.866, 78.436 37.993, 79.751 36.678 C 81.353 35.075, 80.693 33, 78.580 33 C 77.719 33, 77.445 33.875, 77.771 35.582 M 63.335 36.831 C 62.458 38.221, 63.710 41.686, 66.583 45.819 C 66.705 45.995, 67.749 45.549, 68.903 44.829 C 71.712 43.074, 71.614 41.053, 68.750 41.680 C 67.435 41.969, 66.946 41.826, 67.573 41.337 C 68.163 40.877, 68.977 39.600, 69.382 38.500 C 69.973 36.895, 69.870 36.747, 68.859 37.750 C 67.076 39.520, 65.500 39.308, 67 37.500 C 67.685 36.675, 68.077 35.966, 67.872 35.923 C 67.668 35.881, 66.790 35.708, 65.923 35.537 C 65.056 35.367, 63.891 35.949, 63.335 36.831 M 133.989 40.250 C 131.762 43.903, 131.537 45, 133.015 45 C 134.013 45, 137.989 39.214, 137.996 37.750 C 138.005 35.907, 135.797 37.285, 133.989 40.250 M 54 45.567 C 54 47.676, 53.644 48.022, 52.009 47.503 C 48.417 46.363, 47.911 47.995, 50.753 51.557 C 52.264 53.451, 54.063 55, 54.750 55 C 56.456 55, 56.319 54.010, 54.306 51.786 C 52.714 50.027, 52.714 49.953, 54.306 50.564 C 55.503 51.023, 56 50.697, 56 49.452 C 56 47.784, 56.101 47.782, 57.901 49.410 C 61.104 52.309, 61.568 49.202, 58.422 45.919 C 54.983 42.329, 54 42.251, 54 45.567 M 83 46.390 C 72.445 50.081, 68.133 52.771, 60.444 60.460 C 48.920 71.983, 44 83.814, 44 100 C 44 116.231, 49.066 128.395, 60.502 139.628 C 72.126 151.045, 84.185 155.967, 100.585 155.988 C 116.079 156.008, 128.713 150.607, 140.135 139.081 C 151.036 128.081, 156 115.853, 156 100 C 156 83.862, 150.949 71.665, 139.642 60.500 C 135.743 56.650, 132.691 53.050, 132.860 52.500 C 133.028 51.950, 132.849 51.817, 132.462 52.205 C 132.074 52.593, 129.664 51.850, 127.107 50.554 C 117.533 45.703, 110.302 43.996, 99.585 44.059 C 91.781 44.104, 88.030 44.631, 83 46.390 M 140.932 46.126 C 139.299 49.179, 141.211 53, 144.372 53 C 146.766 53, 148.525 50.658, 147.444 48.910 C 146.450 47.301, 143.736 47.870, 144.382 49.552 C 144.723 50.442, 144.555 50.843, 143.989 50.493 C 142.726 49.713, 142.709 47.298, 143.959 46.525 C 144.487 46.199, 145.816 46.493, 146.914 47.178 C 149.359 48.705, 150.752 47.611, 149.020 45.524 C 147.116 43.229, 142.290 43.589, 140.932 46.126 M 152.099 55.874 C 149.878 57.717, 149.097 58.942, 149.849 59.407 C 150.482 59.798, 151.450 59.840, 152 59.500 C 153.890 58.332, 155.197 60.135, 153.408 61.443 C 152.163 62.354, 152.022 62.896, 152.892 63.433 C 154.338 64.327, 161.288 59.274, 160.458 57.932 C 160.106 57.363, 159.077 57.423, 157.841 58.085 C 155.944 59.100, 155.850 58.961, 156.481 56.088 C 157.315 52.291, 156.470 52.250, 152.099 55.874 M 40.994 57.012 C 40.095 58.691, 40.379 59.431, 42.708 61.481 C 46.148 64.507, 47.605 64.607, 49.046 61.914 C 50.460 59.273, 49.559 58.291, 47.380 60.100 C 45.888 61.338, 45.787 61.248, 46.423 59.242 C 47.188 56.832, 46.113 56.287, 44.256 58.144 C 43.397 59.003, 43.252 58.753, 43.673 57.144 C 44.385 54.420, 42.432 54.324, 40.994 57.012 M 35.194 66.267 C 33.614 68.170, 32.620 73, 33.808 73 C 34.372 73, 34.993 72.522, 35.187 71.938 C 35.437 71.189, 36.372 71.191, 38.355 71.945 C 41.679 73.209, 43.496 72.457, 41.740 70.543 C 41.058 69.800, 40.275 69.202, 40 69.214 C 37.705 69.318, 36.868 68.787, 37.349 67.532 C 38.090 65.601, 36.514 64.676, 35.194 66.267 M 163 66.981 C 163 68.260, 162.114 69.184, 160.500 69.589 C 158.921 69.986, 158 70.923, 158 72.134 C 158 73.952, 158.158 73.969, 161.072 72.463 C 163.268 71.327, 164.506 71.175, 165.414 71.928 C 167.550 73.702, 167.958 71.980, 166.250 68.398 C 164.441 64.605, 163 63.976, 163 66.981 M 29.667 79.667 C 28.410 80.923, 29 83.786, 30.645 84.417 C 31.582 84.777, 33.144 84.286, 34.278 83.274 C 36.205 81.554, 36.244 81.569, 35.566 83.750 C 34.731 86.430, 36.507 86.822, 37.830 84.250 C 39.661 80.690, 36.074 78.326, 33.200 81.200 C 32.267 82.133, 32 82.022, 32 80.700 C 32 78.967, 30.868 78.465, 29.667 79.667 M 165.524 81.198 C 164.907 83.127, 164.712 83.217, 164.321 81.750 C 163.568 78.932, 161.837 79.741, 162.184 82.750 C 162.642 86.733, 166.433 87.108, 167.819 83.306 C 168.451 81.571, 168.872 81.168, 168.921 82.250 C 168.964 83.213, 169.481 84, 170.070 84 C 170.658 84, 170.995 82.987, 170.820 81.750 C 170.366 78.557, 166.498 78.153, 165.524 81.198 M 28.667 92.667 C 28.300 93.033, 28 94.010, 28 94.838 C 28 95.665, 27.222 97.202, 26.271 98.253 C 24.630 100.066, 24.634 100.215, 26.332 101.166 C 27.661 101.910, 27.964 102.886, 27.509 104.958 L 26.896 107.748 32.448 107.690 C 35.502 107.658, 38 107.238, 38 106.757 C 38 106.276, 38.520 106.203, 39.155 106.595 C 39.892 107.051, 40.037 106.868, 39.554 106.088 C 39.111 105.371, 39.564 104.300, 40.650 103.494 C 42.242 102.313, 42.319 101.826, 41.202 99.998 C 40.489 98.830, 40.182 97.001, 40.521 95.933 C 41.324 93.403, 38.458 92.233, 35.691 93.961 C 33.975 95.033, 33.457 94.978, 32.463 93.619 C 31.216 91.914, 29.780 91.553, 28.667 92.667 M 163.036 93.456 C 162.372 94.257, 162.089 95.335, 162.408 95.851 C 162.727 96.368, 162.316 97.048, 161.494 97.364 C 159.580 98.098, 159.556 100.892, 161.457 101.622 C 162.443 102, 162.739 103.056, 162.372 104.889 C 161.836 107.572, 161.882 107.597, 167.415 107.624 C 172.540 107.649, 173.500 107.165, 173.118 104.750 C 173.053 104.338, 173.900 104, 175 104 C 177.405 104, 177.607 101.750, 175.401 99.544 C 174.146 98.289, 174.057 97.636, 174.987 96.516 C 177.378 93.635, 172.883 91.537, 170.133 94.250 C 169.117 95.252, 168.608 95.152, 167.572 93.750 C 165.997 91.618, 164.635 91.530, 163.036 93.456 M 29.627 95.530 C 29.188 96.675, 29.495 97.051, 30.682 96.823 C 32.458 96.481, 32.800 94.767, 31.198 94.233 C 30.675 94.058, 29.968 94.642, 29.627 95.530 M 36.250 94.718 C 34.579 95.318, 34.665 96.657, 36.417 97.330 C 37.197 97.629, 38.077 97.242, 38.374 96.469 C 38.996 94.847, 38.055 94.071, 36.250 94.718 M 164 95.500 C 164 96.325, 164.648 97, 165.441 97 C 167.557 97, 168.243 95.307, 166.412 94.605 C 164.184 93.750, 164 93.818, 164 95.500 M 171.074 94.954 C 169.742 95.777, 170.383 98, 171.952 98 C 173.093 98, 174.094 95.176, 173.159 94.598 C 172.744 94.342, 171.806 94.502, 171.074 94.954 M 162 99.500 C 162 100.325, 162.436 101, 162.969 101 C 163.501 101, 163.678 100.325, 163.362 99.500 C 163.045 98.675, 162.609 98, 162.393 98 C 162.177 98, 162 98.675, 162 99.500 M 31 100.941 C 31 101.459, 31.445 102.157, 31.989 102.493 C 32.555 102.843, 32.723 102.442, 32.382 101.552 C 31.717 99.820, 31 99.503, 31 100.941 M 170 100.941 C 170 101.459, 170.445 102.157, 170.989 102.493 C 171.555 102.843, 171.723 102.442, 171.382 101.552 C 170.717 99.820, 170 99.503, 170 100.941 M 38 102 C 38 102.550, 38.423 103, 38.941 103 C 39.459 103, 40.160 102.550, 40.500 102 C 40.840 101.450, 40.416 101, 39.559 101 C 38.702 101, 38 101.450, 38 102 M 173 102 C 173 102.550, 173.477 103, 174.059 103 C 174.641 103, 174.840 102.550, 174.500 102 C 174.160 101.450, 173.684 101, 173.441 101 C 173.198 101, 173 101.450, 173 102 M 29 104.500 C 29 105.325, 29.730 106, 30.622 106 C 31.951 106, 32.020 105.729, 31 104.500 C 30.315 103.675, 29.585 103, 29.378 103 C 29.170 103, 29 103.675, 29 104.500 M 164 104.441 C 164 105.298, 164.450 106, 165 106 C 165.550 106, 166 105.577, 166 105.059 C 166 104.541, 165.550 103.840, 165 103.500 C 164.450 103.160, 164 103.584, 164 104.441 M 34 105.031 C 34 105.564, 34.675 106, 35.500 106 C 36.325 106, 37 105.823, 37 105.607 C 37 105.391, 36.325 104.955, 35.500 104.638 C 34.675 104.322, 34 104.499, 34 105.031 M 169 105.031 C 169 105.564, 169.675 106, 170.500 106 C 171.325 106, 172 105.823, 172 105.607 C 172 105.391, 171.325 104.955, 170.500 104.638 C 169.675 104.322, 169 104.499, 169 105.031" stroke="none" fill="#f8fcfd" fill-rule="evenodd"/><path d="M 97.058 82.820 C 95.165 83.004, 92.780 83.741, 91.758 84.457 C 90.039 85.661, 90.129 85.792, 92.950 86.206 C 95.148 86.529, 96 86.250, 96 85.210 C 96 84.173, 96.634 83.963, 98.250 84.464 C 103.946 86.229, 105.043 86.274, 104.445 84.718 C 103.747 82.897, 101.690 82.369, 97.058 82.820 M 106.641 87.210 C 105.737 90.583, 105.847 90.996, 107.479 90.370 C 108.292 90.058, 108.829 88.958, 108.671 87.927 C 108.226 85.013, 107.315 84.691, 106.641 87.210 M 85.013 89.465 C 84.472 90.888, 83.365 92.306, 82.553 92.618 C 81.741 92.930, 80.821 93.990, 80.508 94.974 C 79.727 97.436, 76.434 101.100, 75.680 100.347 C 75.340 100.007, 75.242 100.661, 75.462 101.800 C 75.681 102.939, 75.217 104.405, 74.430 105.058 C 73.644 105.711, 73 106.810, 73 107.500 C 73 108.190, 72.314 109.324, 71.476 110.020 C 70.638 110.716, 70.185 111.518, 70.470 111.803 C 71.355 112.688, 75 108.785, 75 106.953 C 75 105.942, 76.029 104.959, 77.465 104.598 C 79.243 104.152, 79.753 103.519, 79.295 102.326 C 78.823 101.096, 79.024 100.883, 80.080 101.496 C 80.861 101.950, 81.174 101.960, 80.777 101.520 C 80.379 101.080, 81.841 98.474, 84.027 95.729 C 88.062 90.661, 88.801 88.613, 86.998 87.499 C 86.447 87.158, 85.554 88.043, 85.013 89.465 M 62.127 93 C 62.127 96.675, 62.293 97.087, 63.031 95.250 C 63.570 93.909, 63.570 92.091, 63.031 90.750 C 62.293 88.913, 62.127 89.325, 62.127 93 M 114 95.300 C 114 97.575, 115.651 100, 117.200 100 C 118.447 100, 118.139 95.539, 116.800 94.200 C 114.974 92.374, 114 92.756, 114 95.300 M 134.835 95.794 C 134.559 97.606, 134.738 99.338, 135.233 99.644 C 136.803 100.614, 137.141 99.323, 136.225 95.860 L 135.336 92.500 134.835 95.794 M 70.079 96.583 C 70.127 97.748, 70.364 97.985, 70.683 97.188 C 70.972 96.466, 70.936 95.603, 70.604 95.271 C 70.272 94.939, 70.036 95.529, 70.079 96.583 M 96 99.559 C 96 100.416, 96.450 100.840, 97 100.500 C 97.550 100.160, 98 99.459, 98 98.941 C 98 98.423, 97.550 98, 97 98 C 96.450 98, 96 98.702, 96 99.559 M 103.425 105.497 C 103.466 107.420, 103.950 108.845, 104.500 108.663 C 105.050 108.482, 105.455 107.808, 105.400 107.167 C 105.345 106.525, 105.233 105.100, 105.150 104 C 104.888 100.510, 103.347 101.847, 103.425 105.497 M 123 106.969 C 123 107.501, 123.675 107.678, 124.500 107.362 C 125.325 107.045, 126 106.609, 126 106.393 C 126 106.177, 125.325 106, 124.500 106 C 123.675 106, 123 106.436, 123 106.969 M 128.752 110.781 C 127.239 111.097, 127.195 111.338, 128.426 112.569 C 129.771 113.914, 135.127 116.375, 135.409 115.778 C 135.882 114.774, 130.169 110.485, 128.752 110.781 M 137.694 115.639 C 136.628 116.706, 137.991 118, 140.181 118 C 141.902 118, 142.038 117.751, 141 116.500 C 139.656 114.880, 138.701 114.632, 137.694 115.639" stroke="none" fill="#91a6d3" fill-rule="evenodd"/><path d="M 56.611 83.438 L 53.723 84.714 56.268 85.353 C 57.669 85.704, 59.605 86.295, 60.571 86.666 C 61.706 87.101, 62.091 86.956, 61.659 86.258 C 61.261 85.613, 61.700 85.280, 62.745 85.433 C 63.710 85.575, 64.500 86.323, 64.500 87.095 C 64.500 87.868, 65.384 89.017, 66.463 89.649 C 68.028 90.565, 68.657 90.484, 69.562 89.247 C 71.132 87.099, 72.607 88.309, 72.533 91.684 C 72.499 93.233, 73.291 95.400, 74.293 96.500 C 76.108 98.493, 76.121 98.491, 77.979 96.028 C 79.004 94.668, 79.626 93.204, 79.360 92.773 C 78.632 91.596, 67.899 84.593, 64.703 83.210 C 61.339 81.755, 60.361 81.782, 56.611 83.438 M 135 82.987 C 133.963 83.648, 134.736 83.784, 137.500 83.429 L 141.500 82.914 136.500 84.956 C 130.437 87.432, 130.415 87.434, 132.128 85.250 C 133.396 83.633, 133.355 83.614, 131.598 84.999 C 130.551 85.823, 127.880 88.973, 125.661 91.999 C 120.359 99.230, 111.966 107.350, 106.459 110.577 C 99.371 114.731, 98.063 114.068, 86.777 100.601 L 84.348 97.703 82.209 100.707 L 80.070 103.710 85.285 109.306 C 92.941 117.521, 99.819 119.774, 107.477 116.574 C 111.553 114.871, 122.141 107.044, 121.595 106.138 C 120.451 104.237, 137.354 86.627, 142.194 84.678 C 143.222 84.264, 143.181 83.927, 142 83.091 C 140.135 81.772, 136.979 81.725, 135 82.987 M 89 107.793 C 89 108.343, 90.591 110.189, 92.535 111.896 C 95.006 114.066, 97.093 115, 99.470 115 C 103.277 115, 108.604 113.271, 107.671 112.337 C 107.337 112.004, 105.708 112.292, 104.051 112.979 C 100.155 114.592, 96.882 113.714, 92.518 109.882 C 90.583 108.183, 89 107.243, 89 107.793" stroke="none" fill="#e26467" fill-rule="evenodd"/><path d="M 88 21.882 C 86.075 22.222, 91.428 22.500, 99.896 22.500 C 108.683 22.500, 113.619 22.203, 111.396 21.808 C 106.717 20.976, 92.877 21.020, 88 21.882 M 74.500 25.408 C 64.704 29.170, 63 29.923, 63 30.489 C 63 30.785, 64.688 30.291, 66.750 29.391 C 68.813 28.492, 73.650 26.706, 77.500 25.423 C 81.350 24.139, 83.600 23.093, 82.500 23.097 C 81.400 23.101, 77.800 24.141, 74.500 25.408 M 124 25.835 C 128.675 27.470, 132.644 28.670, 132.819 28.502 C 133.317 28.023, 121.903 23.918, 118.526 23.361 C 116.862 23.087, 119.325 24.200, 124 25.835 M 134 29.393 C 134 29.609, 134.698 30.054, 135.552 30.382 C 136.442 30.723, 136.843 30.555, 136.493 29.989 C 135.906 29.038, 134 28.583, 134 29.393 M 56.946 33.820 C 51.407 37.334, 40.648 47.226, 37.847 51.381 C 36.690 53.096, 38.320 51.680, 41.468 48.232 C 44.616 44.785, 50.186 39.870, 53.846 37.309 C 57.506 34.749, 60.928 32.282, 61.450 31.827 C 63.385 30.143, 61.261 31.083, 56.946 33.820 M 138.500 31.684 C 139.050 32.217, 142.431 34.703, 146.014 37.209 C 152.202 41.537, 157.037 46.236, 163.306 54.017 C 165.950 57.299, 165.935 57.229, 163.050 52.811 C 159.424 47.259, 148.340 36.997, 142 33.322 C 139.525 31.888, 137.950 31.151, 138.500 31.684 M 109 33.059 C 109 33.641, 109.450 33.840, 110 33.500 C 110.550 33.160, 111 32.684, 111 32.441 C 111 32.198, 110.550 32, 110 32 C 109.450 32, 109 32.477, 109 33.059 M 107 34.941 C 107 35.459, 107.445 36.157, 107.989 36.493 C 108.555 36.843, 108.723 36.442, 108.382 35.552 C 107.717 33.820, 107 33.503, 107 34.941 M 124.500 40 C 122.870 40.701, 122.812 40.872, 124.191 40.930 C 125.121 40.968, 126.160 40.550, 126.500 40 C 127.211 38.850, 127.176 38.850, 124.500 40 M 56 44.378 C 56 44.585, 56.788 45.373, 57.750 46.128 C 59.336 47.371, 59.371 47.336, 58.128 45.750 C 56.821 44.084, 56 43.555, 56 44.378 M 86.645 45.584 C 71.325 49.293, 57.127 60.808, 50.052 75.264 C 47.835 79.794, 45.791 85.525, 45.510 88 C 45.041 92.130, 45.122 92.019, 46.500 86.645 C 51.467 67.272, 67.867 51.072, 87.103 46.537 C 111.942 40.682, 137.659 52.649, 149.054 75.366 C 151.224 79.692, 153 82.683, 153 82.012 C 153 78.757, 145.030 66.141, 139.444 60.556 C 125.677 46.788, 105.411 41.041, 86.645 45.584 M 144 48.941 C 144 49.459, 144.375 50.114, 144.833 50.397 C 145.292 50.680, 145.667 50.257, 145.667 49.456 C 145.667 48.655, 145.292 48, 144.833 48 C 144.375 48, 144 48.423, 144 48.941 M 52 50.378 C 52 50.585, 52.788 51.373, 53.750 52.128 C 55.336 53.371, 55.371 53.336, 54.128 51.750 C 52.821 50.084, 52 49.555, 52 50.378 M 44.490 58.016 C 44.144 58.575, 43.373 58.731, 42.776 58.362 C 42.113 57.952, 41.980 58.159, 42.435 58.894 C 42.956 59.739, 43.551 59.787, 44.431 59.057 C 45.120 58.485, 46.052 58.351, 46.502 58.759 C 46.952 59.166, 46.997 58.938, 46.601 58.250 C 45.729 56.734, 45.311 56.688, 44.490 58.016 M 32 60 C 31.411 61.100, 31.155 62, 31.430 62 C 31.705 62, 32.411 61.100, 33 60 C 33.589 58.900, 33.845 58, 33.570 58 C 33.295 58, 32.589 58.900, 32 60 M 167 60 C 167.589 61.100, 168.295 62, 168.570 62 C 168.845 62, 168.589 61.100, 168 60 C 167.411 58.900, 166.705 58, 166.430 58 C 166.155 58, 166.411 58.900, 167 60 M 46.872 60.750 C 45.658 62.298, 45.683 62.357, 47.092 61.259 C 47.968 60.576, 48.980 60.313, 49.342 60.675 C 49.704 61.037, 50 60.808, 50 60.167 C 50 58.455, 48.445 58.745, 46.872 60.750 M 29.459 64.067 C 29.096 64.653, 29.014 65.348, 29.276 65.610 C 29.538 65.872, 30.019 65.392, 30.345 64.543 C 31.021 62.781, 30.445 62.471, 29.459 64.067 M 169.564 64.293 C 169.940 65.279, 170.499 65.834, 170.807 65.526 C 171.115 65.219, 170.808 64.412, 170.124 63.733 C 169.136 62.753, 169.022 62.868, 169.564 64.293 M 26.625 70.979 C 24.369 76.619, 24.716 77.458, 27.092 72.104 C 28.164 69.687, 28.864 67.530, 28.646 67.313 C 28.428 67.095, 27.519 68.745, 26.625 70.979 M 171.114 67.500 C 171.133 68.050, 172.014 70.300, 173.072 72.500 C 174.130 74.700, 174.715 75.375, 174.373 74 C 173.668 71.169, 171.062 65.970, 171.114 67.500 M 23.500 80 C 23.120 81.729, 23.018 83.351, 23.273 83.606 C 23.528 83.861, 24.024 82.632, 24.375 80.875 C 25.209 76.707, 24.401 75.899, 23.500 80 M 175.170 78 C 175.186 78.825, 175.560 80.625, 176 82 C 176.644 84.010, 176.806 84.108, 176.830 82.500 C 176.846 81.400, 176.473 79.600, 176 78.500 C 175.473 77.275, 175.152 77.081, 175.170 78 M 33.923 80.250 C 33.384 82.014, 33.290 84.043, 33.771 83.563 C 34.500 82.833, 35.010 80, 34.412 80 C 34.185 80, 33.966 80.112, 33.923 80.250 M 35.683 83.384 C 35.355 84.238, 35.487 85.183, 35.975 85.484 C 37.250 86.273, 38.011 84.635, 37.073 83.118 C 36.452 82.114, 36.148 82.172, 35.683 83.384 M 90.500 83.662 C 88.850 84.531, 86.465 86.188, 85.199 87.344 C 82.433 89.869, 76.675 99, 77.849 99 C 78.305 99, 79.234 97.782, 79.912 96.293 C 80.591 94.804, 82.013 92.979, 83.073 92.236 C 84.133 91.494, 85 90.264, 85 89.502 C 85 87.248, 86.715 86.858, 88.551 88.694 C 90.168 90.311, 90.227 90.291, 89.606 88.335 C 88.800 85.793, 92.073 83.348, 97.101 82.734 L 100.500 82.320 97 82.200 C 95.075 82.134, 92.150 82.792, 90.500 83.662 M 102.038 82.649 C 102.884 82.878, 104.335 84.288, 105.262 85.783 C 106.855 88.351, 106.948 88.379, 106.973 86.285 C 107 84.074, 104.306 81.896, 101.816 82.116 C 100.973 82.190, 101.053 82.382, 102.038 82.649 M 98.600 85.400 C 99.245 87.082, 102 88.381, 102 87.004 C 102 86.490, 101.110 85.594, 100.023 85.012 C 98.436 84.163, 98.155 84.240, 98.600 85.400 M 153.656 87.500 C 153.991 89.700, 154.431 91.688, 154.633 91.917 C 155.390 92.776, 154.823 87.420, 153.953 85.500 C 153.322 84.106, 153.232 84.712, 153.656 87.500 M 21.636 89.640 C 20.827 95.544, 20.912 106.356, 21.808 111.396 C 22.205 113.632, 22.500 108.841, 22.500 100.146 C 22.500 91.816, 22.449 85, 22.386 85 C 22.323 85, 21.986 87.088, 21.636 89.640 M 108.538 87.197 C 108.772 88.411, 108.413 89.745, 107.740 90.161 C 106.778 90.755, 106.782 91.182, 107.758 92.158 C 108.747 93.147, 109 93.122, 109 92.033 C 109 91.282, 109.296 90.963, 109.658 91.325 C 110.020 91.687, 110.904 91.494, 111.623 90.898 C 112.664 90.034, 112.874 90.530, 112.653 93.330 C 112.284 98.015, 115.128 101.987, 117.708 100.391 C 120.386 98.734, 119.918 96.851, 115.518 91.587 C 110.567 85.661, 107.922 83.998, 108.538 87.197 M 177.233 87.500 C 177.235 89.150, 177.580 91.850, 178 93.500 C 179.058 97.659, 179.105 93.566, 178.057 88.500 C 177.362 85.137, 177.231 84.978, 177.233 87.500 M 61.500 86.765 C 60.950 87.169, 60.467 90.250, 60.426 93.610 C 60.360 99.050, 60.552 99.668, 62.176 99.244 C 63.385 98.928, 63.976 97.879, 63.930 96.133 C 63.866 93.764, 63.773 93.700, 63 95.500 C 62.352 97.008, 62.141 96.394, 62.141 93 C 62.141 89.606, 62.352 88.992, 63 90.500 C 63.720 92.176, 63.871 91.974, 63.930 89.250 C 64 86.005, 63.387 85.379, 61.500 86.765 M 90.500 87 C 90.840 87.550, 91.740 88, 92.500 88 C 93.260 88, 94.160 87.550, 94.500 87 C 94.852 86.431, 93.991 86, 92.500 86 C 91.009 86, 90.148 86.431, 90.500 87 M 69.500 90.288 C 68.950 90.955, 68.500 93.342, 68.500 95.593 C 68.500 98.999, 68.794 99.608, 70.250 99.226 C 71.615 98.868, 72 97.693, 72 93.883 C 72 88.975, 71.352 88.043, 69.500 90.288 M 135.035 90.934 C 134.466 91.998, 134.053 94.136, 134.118 95.684 L 134.237 98.500 135 95.500 C 135.420 93.850, 135.823 93.175, 135.895 94 C 135.968 94.825, 136.318 96.588, 136.674 97.919 C 137.192 99.852, 137.005 100.216, 135.743 99.732 C 134.876 99.399, 133.961 99.660, 133.710 100.313 C 133.443 101.010, 134.173 101.500, 135.478 101.500 C 137.517 101.500, 137.718 100.982, 137.903 95.250 C 138.109 88.902, 137.009 87.247, 135.035 90.934 M 85.232 93.985 C 83.624 96.024, 83.305 97.071, 84.137 97.584 C 84.869 98.037, 85.041 97.876, 84.595 97.155 C 84.203 96.520, 84.246 95.986, 84.691 95.969 C 85.136 95.951, 86.309 94.826, 87.297 93.469 C 89.805 90.022, 88.003 90.473, 85.232 93.985 M 44.165 99.500 C 43.772 119.779, 55.664 139.795, 73.752 149.300 C 77.624 151.335, 81.341 153, 82.012 153 C 82.683 153, 79.692 151.224, 75.366 149.054 C 65.571 144.141, 56.471 135.339, 51.643 126.109 C 47.234 117.681, 45.882 112.669, 45.007 101.500 L 44.301 92.500 44.165 99.500 M 114 95.300 C 114 97.575, 115.651 100, 117.200 100 C 118.447 100, 118.139 95.539, 116.800 94.200 C 114.974 92.374, 114 92.756, 114 95.300 M 155.181 99.500 C 154.526 121.275, 143.112 139.815, 124.683 149.039 C 120.330 151.217, 117.317 153, 117.988 153 C 118.659 153, 122.376 151.335, 126.248 149.300 C 144.444 139.739, 156.765 118.789, 155.739 99.156 L 155.392 92.500 155.181 99.500 M 70.079 96.583 C 70.127 97.748, 70.364 97.985, 70.683 97.188 C 70.972 96.466, 70.936 95.603, 70.604 95.271 C 70.272 94.939, 70.036 95.529, 70.079 96.583 M 129.383 95.804 C 127.621 96.962, 126.993 101, 128.575 101 C 129.338 101, 130.250 99.854, 130.601 98.453 C 131.319 95.592, 130.945 94.778, 129.383 95.804 M 88.564 98.750 C 89.759 104.201, 90 104.613, 91.038 102.972 C 91.550 102.162, 91.976 100.263, 91.985 98.750 C 91.996 96.653, 91.521 96, 89.981 96 C 88.299 96, 88.062 96.459, 88.564 98.750 M 96.250 97.631 C 98.146 98.190, 98.548 99.543, 97.085 100.447 C 96.582 100.758, 95.910 100.447, 95.592 99.756 C 95.274 99.065, 95.151 101.303, 95.319 104.729 C 95.487 108.155, 95.942 111.275, 96.329 111.662 C 97.978 113.312, 99.082 109.851, 98.802 103.908 C 98.540 98.369, 98.234 97.493, 96.500 97.317 C 94.942 97.160, 94.887 97.229, 96.250 97.631 M 80.494 100.006 C 79.496 101.110, 78.864 102.190, 79.089 102.408 C 79.315 102.626, 80.309 101.723, 81.297 100.402 C 83.479 97.484, 82.994 97.245, 80.494 100.006 M 75.217 99.473 C 76.119 100.472, 70.480 108.417, 66.500 111.753 L 63.500 114.268 66.373 112.530 C 67.953 111.575, 68.937 111.292, 68.560 111.903 C 67.574 113.498, 62 116.230, 62 115.119 C 62 114.607, 61.100 114.423, 60 114.710 C 56.745 115.562, 57.718 117, 61.550 117 C 67.073 117, 72.010 113.619, 77.859 105.829 C 78.947 104.381, 78.839 104.229, 77.057 104.695 C 75.926 104.991, 75 106.011, 75 106.962 C 75 107.912, 74.089 109.514, 72.976 110.521 C 71.362 111.982, 70.705 112.100, 69.726 111.105 C 68.756 110.117, 68.796 109.924, 69.918 110.179 C 70.698 110.355, 71.841 109.535, 72.457 108.357 C 73.074 107.178, 74.178 105.490, 74.911 104.607 C 75.645 103.723, 75.910 103, 75.500 103 C 75.090 103, 75.282 102.365, 75.926 101.589 C 76.828 100.502, 76.799 100.006, 75.799 99.429 C 75.084 99.017, 74.822 99.036, 75.217 99.473 M 102.682 100.613 C 102.975 101.376, 103.585 102, 104.037 102 C 104.490 102, 105.056 103.013, 105.294 104.250 C 105.620 105.941, 105.761 105.721, 105.864 103.367 C 105.965 101.047, 105.500 100.103, 104.075 99.730 C 102.724 99.377, 102.308 99.640, 102.682 100.613 M 110.200 102.908 C 110.365 104.324, 111.212 105.618, 112.083 105.783 C 113.302 106.013, 113.569 105.422, 113.244 103.208 C 112.701 99.507, 109.769 99.218, 110.200 102.908 M 102.188 107.153 C 102.406 110.192, 102.947 111.500, 103.986 111.500 C 104.804 111.500, 105.624 110.714, 105.809 109.754 C 106.037 108.571, 105.679 108.186, 104.700 108.562 C 103.618 108.977, 103.372 108.503, 103.722 106.675 C 103.978 105.333, 103.668 103.913, 103.032 103.520 C 102.208 103.011, 101.965 104.057, 102.188 107.153 M 122.667 104.667 C 119.730 107.603, 130.242 116.971, 138.500 118.777 C 143.101 119.783, 149.339 118.519, 148.736 116.704 C 148.229 115.177, 137.901 113.838, 136.378 115.101 C 135.052 116.201, 130.620 114.762, 128.353 112.496 C 126.968 111.111, 127.308 110.556, 129.324 110.906 C 129.778 110.985, 129.881 110.616, 129.553 110.086 C 129.226 109.556, 128.067 109.294, 126.979 109.504 C 125.716 109.747, 125 109.342, 125 108.384 C 125 107.558, 124.550 107.160, 124 107.500 C 123.450 107.840, 123 107.589, 123 106.942 C 123 106.259, 123.838 105.986, 125 106.290 C 127.362 106.907, 127.714 105.488, 125.418 104.607 C 123.460 103.855, 123.478 103.855, 122.667 104.667 M 178.158 106 C 178.158 107.375, 178.385 107.938, 178.662 107.250 C 178.940 106.563, 178.940 105.438, 178.662 104.750 C 178.385 104.063, 178.158 104.625, 178.158 106 M 177.232 112 C 177.232 113.925, 177.438 114.713, 177.689 113.750 C 177.941 112.787, 177.941 111.213, 177.689 110.250 C 177.438 109.287, 177.232 110.075, 177.232 112 M 137.538 115.939 C 136.503 117.613, 139.195 118.146, 143.543 117.128 C 147.382 116.229, 147.405 116.198, 144.332 116.100 C 142.589 116.045, 140.497 115.744, 139.683 115.432 C 138.869 115.119, 137.903 115.348, 137.538 115.939 M 23.361 118.526 C 23.918 121.903, 28.023 133.317, 28.502 132.819 C 28.670 132.644, 27.470 128.675, 25.835 124 C 24.200 119.325, 23.087 116.862, 23.361 118.526 M 174.194 123.304 C 172.925 127.262, 171.654 131.175, 171.368 132 C 170.905 133.333, 170.966 133.333, 171.909 132 C 173.380 129.920, 177.239 118.204, 176.832 117.052 C 176.650 116.533, 175.462 119.347, 174.194 123.304 M 168.114 138.011 C 166.881 140.205, 166.081 142, 166.337 142 C 167.014 142, 171.148 134.815, 170.718 134.385 C 170.519 134.186, 169.347 135.817, 168.114 138.011 M 31.310 138.500 C 32.155 140.150, 33.596 142.400, 34.510 143.500 C 35.424 144.600, 35.161 143.700, 33.926 141.500 C 31.201 136.646, 29.159 134.306, 31.310 138.500 M 160.754 148.968 C 155.759 155.232, 145.916 163.958, 140.944 166.529 C 139.325 167.366, 138 168.294, 138 168.590 C 138 171.718, 161.779 151.066, 164.873 145.250 C 166.723 141.773, 165.896 142.520, 160.754 148.968 M 37.785 148.696 C 40.963 153.162, 53.252 164.211, 58.023 166.893 C 60.210 168.122, 62 168.917, 62 168.659 C 62 168.401, 59.862 166.942, 57.250 165.417 C 54.638 163.892, 48.678 158.787, 44.006 154.072 C 39.334 149.357, 36.535 146.938, 37.785 148.696 M 85.500 153.953 C 87.420 154.823, 92.776 155.390, 91.917 154.633 C 91.688 154.431, 89.700 153.991, 87.500 153.656 C 84.712 153.232, 84.106 153.322, 85.500 153.953 M 110.500 154 C 107.778 154.693, 107.732 154.768, 110 154.811 C 111.375 154.838, 113.400 154.473, 114.500 154 C 116.966 152.940, 114.664 152.940, 110.500 154 M 94.250 155.689 C 95.213 155.941, 96.787 155.941, 97.750 155.689 C 98.713 155.438, 97.925 155.232, 96 155.232 C 94.075 155.232, 93.287 155.438, 94.250 155.689 M 102.250 155.689 C 103.213 155.941, 104.787 155.941, 105.750 155.689 C 106.713 155.438, 105.925 155.232, 104 155.232 C 102.075 155.232, 101.287 155.438, 102.250 155.689 M 70.500 173.007 C 72.700 174.019, 75.850 175.121, 77.500 175.458 C 79.150 175.794, 77.575 174.936, 74 173.551 C 66.450 170.626, 64.745 170.362, 70.500 173.007 M 123.500 174.115 C 119.100 175.669, 116.217 176.954, 117.093 176.970 C 118.938 177.005, 129.122 173.609, 131.731 172.091 C 134.499 170.479, 132.168 171.052, 123.500 174.115 M 81.813 176.683 C 82.534 176.972, 83.397 176.936, 83.729 176.604 C 84.061 176.272, 83.471 176.036, 82.417 176.079 C 81.252 176.127, 81.015 176.364, 81.813 176.683 M 88.500 178.057 C 93.566 179.105, 97.659 179.058, 93.500 178 C 91.850 177.580, 89.150 177.235, 87.500 177.233 C 84.978 177.231, 85.137 177.362, 88.500 178.057 M 106.500 178 C 102.341 179.058, 106.434 179.105, 111.500 178.057 C 114.863 177.362, 115.022 177.231, 112.500 177.233 C 110.850 177.235, 108.150 177.580, 106.500 178" stroke="none" fill="#97a7c9" fill-rule="evenodd"/><path d="M 91.733 45.124 C 92.412 45.808, 93.219 46.115, 93.526 45.807 C 93.834 45.499, 93.279 44.940, 92.293 44.564 C 90.868 44.022, 90.753 44.136, 91.733 45.124 M 53.500 81.765 C 52.950 82.169, 52.438 83.287, 52.361 84.250 C 52.259 85.535, 52.923 85.969, 54.861 85.884 C 56.809 85.798, 57.003 85.641, 55.601 85.282 C 54.088 84.895, 54.494 84.427, 57.601 82.979 L 61.500 81.162 58 81.096 C 56.075 81.060, 54.050 81.361, 53.500 81.765 M 64 83 C 64.825 83.533, 65.950 83.969, 66.500 83.969 C 67.050 83.969, 66.825 83.533, 66 83 C 65.175 82.467, 64.050 82.031, 63.500 82.031 C 62.950 82.031, 63.175 82.467, 64 83 M 130.024 85.847 C 128.086 87.750, 127.400 88.622, 128.500 87.784 C 129.600 86.946, 131.063 86.465, 131.750 86.714 C 132.438 86.963, 133 86.679, 133 86.083 C 133 85.487, 133.338 85.086, 133.750 85.190 C 134.947 85.495, 140.936 83.913, 141.389 83.173 C 141.615 82.803, 139.944 82.475, 137.675 82.443 C 134.274 82.397, 132.929 82.995, 130.024 85.847 M 134 84.059 C 134 84.641, 134.450 84.840, 135 84.500 C 135.550 84.160, 136 83.684, 136 83.441 C 136 83.198, 135.550 83, 135 83 C 134.450 83, 134 83.477, 134 84.059 M 68 84.341 C 68 84.557, 69.912 85.996, 72.250 87.537 C 74.654 89.122, 75.880 89.586, 75.073 88.604 C 73.718 86.956, 68 83.510, 68 84.341 M 96.669 86.102 C 95.499 90.473, 95.915 96.753, 97.411 97.328 C 98.500 97.746, 98.900 96.594, 99.161 92.281 C 99.536 86.105, 97.812 81.831, 96.669 86.102 M 135.962 88.959 C 134.058 90.587, 132.810 91.937, 133.188 91.959 C 133.567 91.982, 135.355 90.650, 137.161 89 C 141.401 85.127, 140.482 85.096, 135.962 88.959 M 89.423 89.817 C 88.196 94.149, 88.383 95.228, 90.500 96.011 C 92.308 96.679, 92.500 96.331, 92.500 92.386 C 92.500 87.414, 90.562 85.796, 89.423 89.817 M 102.844 87.750 C 102.757 88.162, 102.645 90.861, 102.594 93.746 C 102.517 98.040, 102.807 98.993, 104.190 98.996 C 106.223 99.001, 107.062 92.761, 105.500 89.258 C 104.517 87.053, 103.151 86.278, 102.844 87.750 M 44 92 C 44 92.550, 44.477 93, 45.059 93 C 45.641 93, 45.840 92.550, 45.500 92 C 45.160 91.450, 44.684 91, 44.441 91 C 44.198 91, 44 91.450, 44 92 M 79.014 92.414 C 79.662 93.062, 80.338 93.062, 80.986 92.414 C 81.633 91.767, 81.295 91.429, 80 91.429 C 78.705 91.429, 78.367 91.767, 79.014 92.414 M 110.418 92.302 C 109.057 94.624, 109.834 100, 111.530 100 C 112.247 100, 113.067 100.563, 113.353 101.250 C 113.639 101.938, 113.744 101.600, 113.587 100.500 C 113.429 99.400, 113.030 97.825, 112.699 97 C 112.369 96.175, 111.958 94.375, 111.787 93 C 111.505 90.742, 111.373 90.674, 110.418 92.302 M 154.500 92 C 154.160 92.550, 154.359 93, 154.941 93 C 155.523 93, 156 92.550, 156 92 C 156 91.450, 155.802 91, 155.559 91 C 155.316 91, 154.840 91.450, 154.500 92 M 30.500 93 C 30.160 93.550, 30.359 94, 30.941 94 C 31.523 94, 32 93.550, 32 93 C 32 92.450, 31.802 92, 31.559 92 C 31.316 92, 30.840 92.450, 30.500 93 M 164.443 93.418 C 163.376 94.198, 162.840 95.173, 163.252 95.585 C 163.663 95.997, 164 95.808, 164 95.167 C 164 94.525, 164.675 94, 165.500 94 C 166.325 94, 167 93.550, 167 93 C 167 91.691, 166.749 91.732, 164.443 93.418 M 122.872 94.750 C 121.629 96.336, 121.664 96.371, 123.250 95.128 C 124.916 93.821, 125.445 93, 124.622 93 C 124.415 93, 123.627 93.787, 122.872 94.750 M 129.981 94.523 C 128.924 95.796, 128.986 95.943, 130.359 95.416 C 131.261 95.069, 132 94.384, 132 93.893 C 132 92.607, 131.421 92.788, 129.981 94.523 M 68.079 97.583 C 68.127 98.748, 68.364 98.985, 68.683 98.188 C 68.972 97.466, 68.936 96.603, 68.604 96.271 C 68.272 95.939, 68.036 96.529, 68.079 97.583 M 178.079 97.583 C 178.127 98.748, 178.364 98.985, 178.683 98.188 C 178.972 97.466, 178.936 96.603, 178.604 96.271 C 178.272 95.939, 178.036 96.529, 178.079 97.583 M 32.395 99.334 C 32.453 100.434, 33.175 101.518, 34 101.743 C 35.282 102.093, 35.291 102.007, 34.064 101.152 C 32.952 100.378, 32.892 99.835, 33.798 98.743 C 34.706 97.649, 34.668 97.333, 33.629 97.333 C 32.892 97.333, 32.337 98.234, 32.395 99.334 M 167.216 99.667 C 167.081 101.295, 167.548 101.995, 168.761 101.985 C 170.192 101.972, 170.245 101.808, 169.064 101.061 C 167.951 100.357, 167.892 99.836, 168.798 98.743 C 169.701 97.655, 169.676 97.333, 168.688 97.333 C 167.985 97.333, 167.322 98.383, 167.216 99.667 M 88.116 100.095 C 88.051 101.540, 88.886 103.492, 90 104.500 C 91.947 106.262, 92 106.247, 91.985 103.905 C 91.973 102.031, 91.764 101.825, 91.038 102.972 C 90.028 104.570, 89.685 104.066, 88.675 99.500 C 88.331 97.948, 88.206 98.081, 88.116 100.095 M 126.094 99.387 C 125.195 100.470, 125.187 100.998, 126.062 101.538 C 126.760 101.970, 127.004 103.586, 126.676 105.609 C 126.377 107.454, 126.461 109.167, 126.864 109.416 C 128.003 110.120, 129.577 108.663, 129.473 107 C 129.421 106.175, 129.742 104.462, 130.186 103.193 C 130.722 101.662, 130.642 101.103, 129.949 101.531 C 129.374 101.887, 128.151 101.888, 127.230 101.535 C 125.812 100.991, 125.777 100.756, 126.999 100.001 C 127.793 99.510, 128.182 98.848, 127.864 98.530 C 127.545 98.212, 126.749 98.597, 126.094 99.387 M 60.007 106.207 C 60.286 109.896, 61.058 113.458, 61.724 114.124 C 63.357 115.757, 63.829 114.209, 64.204 106 C 64.493 99.654, 64.441 99.500, 62 99.500 C 59.531 99.500, 59.506 99.584, 60.007 106.207 M 68 104.800 C 68 107.440, 67.553 110.143, 67.007 110.807 C 66.461 111.471, 67.150 110.974, 68.538 109.703 C 69.969 108.393, 71.322 105.792, 71.662 103.696 C 72.196 100.403, 72.029 100, 70.131 100 C 68.252 100, 68 100.568, 68 104.800 M 178.079 102.583 C 178.127 103.748, 178.364 103.985, 178.683 103.188 C 178.972 102.466, 178.936 101.603, 178.604 101.271 C 178.272 100.939, 178.036 101.529, 178.079 102.583 M 124 102.941 C 124 103.459, 124.445 104.157, 124.989 104.493 C 125.555 104.843, 125.723 104.442, 125.382 103.552 C 124.717 101.820, 124 101.503, 124 102.941 M 133.923 105.250 C 133.881 107.037, 133.696 109.286, 133.513 110.246 C 133.174 112.014, 134.407 113.278, 136.827 113.645 C 137.631 113.766, 137.927 113.252, 137.577 112.341 C 137.260 111.514, 137 108.848, 137 106.418 C 137 103.158, 136.607 102, 135.500 102 C 134.490 102, 133.975 103.062, 133.923 105.250 M 81.500 106 C 82.495 107.100, 83.535 108, 83.810 108 C 84.085 108, 83.495 107.100, 82.500 106 C 81.505 104.900, 80.465 104, 80.190 104 C 79.915 104, 80.505 104.900, 81.500 106 M 109.677 107.126 C 109.227 108.848, 109.382 108.943, 110.829 107.840 C 111.748 107.139, 112.632 106.494, 112.793 106.407 C 112.954 106.319, 112.436 105.998, 111.642 105.693 C 110.751 105.351, 109.998 105.901, 109.677 107.126 M 162 105.882 C 162 106.432, 162.450 107.160, 163 107.500 C 163.550 107.840, 164 107.668, 164 107.118 C 164 106.568, 163.550 105.840, 163 105.500 C 162.450 105.160, 162 105.332, 162 105.882 M 154 106.941 C 154 107.459, 154.445 108.157, 154.989 108.493 C 155.555 108.843, 155.723 108.442, 155.382 107.552 C 154.717 105.820, 154 105.503, 154 106.941 M 89.029 107.563 C 89.013 108.148, 90.350 109.919, 92 111.500 C 93.650 113.081, 95.007 113.952, 95.015 113.437 C 95.024 112.922, 95.449 113.162, 95.961 113.971 C 96.473 114.780, 97.253 115.056, 97.696 114.584 C 98.410 113.822, 97.647 113.217, 95.288 112.675 C 94.868 112.579, 93.295 111.150, 91.792 109.500 C 90.289 107.850, 89.045 106.978, 89.029 107.563 M 93.226 108.579 C 94.176 109.570, 95.168 110.166, 95.431 109.903 C 95.694 109.640, 94.917 108.829, 93.705 108.100 C 91.598 106.835, 91.577 106.857, 93.226 108.579 M 86 111.500 C 87.292 112.875, 88.574 114, 88.849 114 C 89.124 114, 88.292 112.875, 87 111.500 C 85.708 110.125, 84.426 109, 84.151 109 C 83.876 109, 84.708 110.125, 86 111.500 M 114.114 112.551 C 111.702 114.448, 110.127 115.993, 110.614 115.985 C 111.101 115.977, 113.300 114.419, 115.500 112.523 C 120.660 108.075, 119.784 108.094, 114.114 112.551 M 98.609 112.176 C 98.889 112.629, 99.991 113, 101.059 113 C 102.127 113, 103 113.525, 103 114.167 C 103 114.808, 103.266 115.067, 103.592 114.742 C 104.674 113.659, 102.532 111.501, 100.300 111.426 C 99.090 111.385, 98.329 111.723, 98.609 112.176 M 105 113 C 105 113.550, 105.423 114, 105.941 114 C 106.459 114, 107.160 113.550, 107.500 113 C 107.840 112.450, 107.416 112, 106.559 112 C 105.702 112, 105 112.450, 105 113 M 91.226 115.579 C 92.176 116.570, 93.168 117.166, 93.431 116.903 C 93.694 116.640, 92.917 115.829, 91.705 115.100 C 89.598 113.835, 89.577 113.857, 91.226 115.579 M 91.500 155 C 91.160 155.550, 91.359 156, 91.941 156 C 92.523 156, 93 155.550, 93 155 C 93 154.450, 92.802 154, 92.559 154 C 92.316 154, 91.840 154.450, 91.500 155 M 107 155 C 107 155.550, 107.477 156, 108.059 156 C 108.641 156, 108.840 155.550, 108.500 155 C 108.160 154.450, 107.684 154, 107.441 154 C 107.198 154, 107 154.450, 107 155 M 97.750 178.706 C 98.987 178.944, 101.013 178.944, 102.250 178.706 C 103.487 178.467, 102.475 178.272, 100 178.272 C 97.525 178.272, 96.513 178.467, 97.750 178.706" stroke="none" fill="#e9b1a4" fill-rule="evenodd"/><path d="M 94 45.876 C 94 46.391, 93.100 46.577, 92 46.290 C 90.795 45.975, 90 46.259, 90 47.006 C 90 47.939, 89.582 47.906, 88.308 46.872 C 87.377 46.118, 86.918 46.005, 87.288 46.622 C 87.730 47.360, 86.445 47.915, 83.538 48.243 C 81.106 48.517, 78.379 49.479, 77.477 50.380 C 76.576 51.281, 75.356 51.720, 74.765 51.355 C 74.128 50.961, 73.982 51.161, 74.405 51.845 C 74.797 52.480, 74.600 53, 73.967 53 C 72.394 53, 67.931 56.597, 68.633 57.299 C 68.944 57.610, 68.334 57.639, 67.279 57.363 C 66.159 57.070, 64.765 57.595, 63.930 58.622 C 63.144 59.591, 62.988 60.092, 63.583 59.736 C 64.179 59.380, 64.667 59.700, 64.667 60.449 C 64.667 61.197, 64.179 61.625, 63.583 61.401 C 62.114 60.846, 56.357 66.136, 56.436 67.968 C 56.471 68.776, 55.488 70.529, 54.250 71.864 C 53.013 73.200, 52 74.879, 52 75.596 C 52 76.314, 51.213 77.359, 50.250 77.920 C 49.288 78.481, 48.893 78.953, 49.372 78.970 C 49.852 78.986, 49.669 79.694, 48.965 80.542 C 47.995 81.711, 47.966 82.366, 48.842 83.242 C 50.244 84.644, 50.387 89, 49.031 89 C 48.499 89, 48.200 88.438, 48.367 87.750 C 48.535 87.063, 48.477 86.856, 48.239 87.292 C 48.001 87.727, 47.062 87.502, 46.153 86.792 C 44.686 85.646, 44.650 85.692, 45.833 87.202 C 46.669 88.270, 46.887 89.760, 46.419 91.202 C 46.008 92.466, 45.783 97.100, 45.919 101.500 C 46.242 111.936, 46.337 112.996, 46.905 112.429 C 47.987 111.347, 49.637 117.666, 48.930 120.185 C 48.176 122.874, 49.023 123.097, 52.500 121.124 C 53.050 120.812, 53.950 120.478, 54.500 120.383 C 55.050 120.288, 56.148 120.050, 56.941 119.855 C 57.733 119.660, 58.562 120.330, 58.782 121.344 C 59.126 122.925, 58.684 123.121, 55.679 122.716 C 52.294 122.259, 52.183 122.348, 52.409 125.312 C 52.537 127, 53.192 128.564, 53.863 128.788 C 54.808 129.103, 54.792 129.549, 53.792 130.761 C 52.655 132.140, 52.754 132.192, 54.619 131.199 C 57.220 129.813, 58.408 130.755, 56.774 132.908 C 56.110 133.784, 55.909 134.217, 56.328 133.872 C 56.747 133.526, 58.415 134.568, 60.034 136.188 C 61.653 137.807, 63.373 138.887, 63.857 138.589 C 64.340 138.290, 64.683 139.039, 64.618 140.253 C 64.536 141.785, 65.418 142.895, 67.500 143.881 C 69.150 144.662, 70.865 145.918, 71.311 146.672 C 71.758 147.426, 72.622 147.734, 73.231 147.357 C 73.969 146.901, 74.115 147.313, 73.667 148.586 C 73.016 150.442, 73.041 150.441, 74.498 148.559 C 75.420 147.367, 76 147.125, 76 147.931 C 76 148.953, 76.316 148.983, 77.421 148.065 C 78.590 147.096, 78.745 147.260, 78.294 148.985 C 77.992 150.140, 78.139 151.013, 78.622 150.924 C 79.105 150.836, 79.725 150.849, 80 150.953 C 80.275 151.057, 82.193 151.349, 84.262 151.601 C 86.331 151.852, 89.256 152.550, 90.762 153.150 C 93.775 154.352, 107.060 154.913, 106.381 153.811 C 106.148 153.431, 106.754 153.152, 107.728 153.191 C 110.620 153.305, 115.250 152.150, 116.363 151.037 C 117.807 149.593, 119.251 149.738, 118.485 151.250 C 118.137 151.938, 118.515 151.689, 119.325 150.697 C 120.432 149.341, 120.928 149.217, 121.320 150.197 C 121.648 151.016, 121.871 150.828, 121.921 149.691 C 121.964 148.696, 122.450 148.160, 123 148.500 C 123.550 148.840, 124.007 148.529, 124.015 147.809 C 124.026 146.858, 124.296 146.910, 125 148 C 125.704 149.090, 125.974 149.142, 125.985 148.191 C 125.993 147.471, 126.450 147.160, 127 147.500 C 127.550 147.840, 128 147.425, 128 146.578 C 128 145.731, 129.222 144.731, 130.717 144.356 C 132.211 143.981, 134.348 142.782, 135.467 141.690 C 136.585 140.599, 137.012 139.977, 136.417 140.309 C 135.821 140.641, 135.333 140.282, 135.333 139.512 C 135.333 138.741, 135.596 138.139, 135.917 138.174 C 137.996 138.398, 139.002 137.774, 139.015 136.250 C 139.024 135.212, 139.329 134.929, 139.765 135.555 C 140.771 136.999, 143.741 133.841, 143.422 131.667 C 143.287 130.750, 143.587 130, 144.088 130 C 144.590 130, 145 129.045, 145 127.878 C 145 126, 145.202 125.913, 146.750 127.128 C 148.312 128.353, 148.362 128.323, 147.212 126.852 C 146.122 125.456, 146.283 124.921, 148.266 123.352 C 150.280 121.758, 152.615 118, 151.591 118 C 151.400 118, 149.572 118.699, 147.527 119.553 C 144.322 120.892, 143.895 121.444, 144.424 123.553 C 144.954 125.664, 144.692 126, 142.519 126 C 140.947 126, 140 125.436, 140 124.500 C 140 123.675, 140.450 123, 141 123 C 141.550 123, 142 122.550, 142 122 C 142 121.450, 140.537 120.984, 138.750 120.965 C 136.963 120.945, 134.398 120.319, 133.050 119.573 C 131.703 118.826, 130.128 118.319, 129.550 118.444 C 128.973 118.570, 128.812 118.492, 129.194 118.271 C 130.262 117.655, 128.942 115, 127.567 115 C 126.042 115, 122 110.779, 122 109.186 C 122 107.348, 121.211 107.710, 116.179 111.857 C 109.169 117.635, 103.587 119.309, 96.427 117.782 C 92.692 116.986, 90.611 115.603, 85.807 110.723 C 79.609 104.428, 78.052 104.246, 78.015 109.809 C 78.007 111.094, 77.556 111.843, 76.998 111.499 C 76.447 111.158, 75.550 112.052, 75.006 113.485 C 74.461 114.919, 73.449 115.975, 72.757 115.833 C 72.066 115.692, 69.382 116.400, 66.793 117.407 C 61.471 119.478, 56.425 118.941, 57.398 116.406 C 57.726 115.549, 57.550 115.160, 56.989 115.507 C 56.445 115.843, 56 115.641, 56 115.059 C 56 114.477, 57.114 114, 58.475 114 C 60.624 114, 60.887 113.638, 60.473 111.250 C 60.211 109.737, 59.803 104.900, 59.567 100.500 C 59.331 96.100, 59.107 92.372, 59.069 92.215 C 59.031 92.058, 58.145 92.387, 57.100 92.947 C 55.653 93.721, 55.061 93.601, 54.617 92.444 C 53.978 90.780, 56.269 89.430, 57.959 90.475 C 58.539 90.833, 59.302 90.378, 59.653 89.462 C 60.435 87.425, 58.459 86.036, 54.750 86.015 C 52.681 86.004, 52 85.510, 52 84.019 C 52 78.175, 66.951 81.428, 75.874 89.213 L 79.247 92.156 82.374 88.371 C 84.093 86.290, 86.175 83.785, 87 82.804 C 88.408 81.131, 89.942 80.892, 97.500 81.169 C 99.150 81.229, 101.737 81.021, 103.250 80.705 C 104.776 80.387, 106 80.571, 106 81.117 C 106 81.659, 107.575 82.760, 109.500 83.564 C 111.425 84.369, 113 85.649, 113 86.408 C 113 87.168, 114.151 88.850, 115.558 90.145 C 116.965 91.440, 118.529 93.513, 119.034 94.750 C 119.538 95.987, 120.299 96.999, 120.725 96.998 C 121.151 96.997, 123.064 94.702, 124.975 91.898 C 129.883 84.696, 133.394 81.997, 137.827 82.015 C 141.832 82.032, 145.425 83.776, 143.263 84.655 C 140.954 85.594, 137.486 88.933, 138.785 88.967 C 139.764 88.992, 139.813 89.482, 138.989 91.021 C 137.698 93.432, 138.487 95.134, 140.532 94.349 C 141.447 93.998, 142 94.391, 142 95.393 C 142 96.277, 141.325 97, 140.500 97 C 139.675 97, 139 97.873, 139 98.941 C 139 100.009, 138.550 101.160, 138 101.500 C 137.450 101.840, 137 104.315, 137 107 C 137 109.685, 137.450 112.160, 138 112.500 C 138.550 112.840, 139 112.590, 139 111.944 C 139 111.165, 139.828 111.313, 141.465 112.385 C 144.209 114.183, 152 114.595, 152 112.941 C 152 112.359, 152.563 112.206, 153.250 112.601 C 153.938 112.997, 154.215 113.001, 153.867 112.610 C 153.518 112.220, 153.583 110.347, 154.011 108.450 C 154.439 106.552, 154.444 105, 154.022 105 C 153.047 105, 153.355 96.852, 154.394 95.172 C 154.830 94.466, 154.496 92.879, 153.633 91.563 C 152.786 90.270, 151.983 87.336, 151.848 85.042 C 151.712 82.749, 151.234 80.644, 150.784 80.367 C 150.335 80.089, 150.269 79.373, 150.638 78.776 C 151.039 78.129, 150.844 77.979, 150.155 78.405 C 149.513 78.801, 148.966 78.536, 148.923 77.809 C 148.729 74.482, 147.990 72.466, 146.591 71.443 C 145.391 70.566, 145.327 70.058, 146.285 69.043 C 147.270 67.999, 147.097 67.962, 145.375 68.846 C 143.429 69.845, 143.271 69.693, 143.496 67.049 C 143.665 65.059, 143.347 64.313, 142.473 64.649 C 141.775 64.917, 140.293 64.157, 139.179 62.961 C 137.973 61.667, 136.655 61.095, 135.922 61.548 C 135.237 61.972, 134.946 61.896, 135.267 61.377 C 136.147 59.953, 132.931 56.415, 128.776 54.235 C 126.728 53.160, 125.378 51.920, 125.776 51.480 C 126.174 51.040, 125.869 51.045, 125.098 51.492 C 124.208 52.009, 123.260 51.708, 122.500 50.670 C 121.316 49.050, 118.653 48.218, 114.191 48.074 C 112.795 48.029, 112.148 47.570, 112.554 46.913 C 112.987 46.213, 112.206 45.894, 110.363 46.019 C 108.788 46.125, 107.275 46.124, 107 46.015 C 105.027 45.240, 94 45.122, 94 45.876 M 82 82 C 82 83.111, 82.667 84, 83.500 84 C 85.183 84, 85.251 83.817, 84.393 81.582 C 83.536 79.347, 82 79.616, 82 82 M 117 81 C 117 81.550, 117.675 82, 118.500 82 C 119.325 82, 120 81.550, 120 81 C 120 80.450, 119.325 80, 118.500 80 C 117.675 80, 117 80.450, 117 81 M 130.872 81.750 C 129.603 83.369, 129.650 83.390, 131.500 82.033 C 132.600 81.226, 133.688 80.439, 133.917 80.283 C 134.146 80.127, 133.863 80, 133.289 80 C 132.715 80, 131.627 80.787, 130.872 81.750 M 73.777 84.117 C 75.959 87.563, 78 88.996, 78 87.083 C 78 86.487, 77.550 86, 77 86 C 76.450 86, 76 85.433, 76 84.741 C 76 84.048, 75.023 82.871, 73.829 82.125 L 71.657 80.769 73.777 84.117 M 95.150 87.750 C 95.067 88.438, 94.304 89, 93.454 89 C 92.260 89, 91.960 89.998, 92.135 93.385 C 92.307 96.719, 92.738 97.716, 93.931 97.545 C 95.620 97.304, 96.392 93.713, 95.716 89.250 C 95.487 87.737, 95.232 87.063, 95.150 87.750 M 99.683 87.650 C 98.553 88.780, 98.915 98.829, 100.112 99.569 C 101.996 100.733, 103.113 97.720, 102.533 93.040 C 101.967 88.469, 100.894 86.440, 99.683 87.650 M 142.356 89.501 C 142.169 92.746, 143.624 92.746, 144.245 89.500 C 144.523 88.046, 144.258 87, 143.611 87.001 C 143 87.001, 142.435 88.126, 142.356 89.501 M 65.335 92.116 C 65.686 93.427, 65.979 95.287, 65.986 96.250 C 65.994 97.213, 66.385 98, 66.856 98 C 68.323 98, 67.614 90.703, 66.098 90.199 C 65.053 89.851, 64.859 90.337, 65.335 92.116 M 106 96.331 C 106 98.679, 106.563 101.206, 107.250 101.947 C 108.266 103.041, 108.219 103.145, 107 102.500 C 105.759 101.844, 105.723 101.947, 106.792 103.095 C 107.892 104.277, 108.223 104.262, 109.026 102.992 C 110.314 100.955, 110.250 95, 108.941 95 C 108.359 95, 108.131 94.597, 108.435 94.105 C 108.740 93.612, 108.316 92.952, 107.494 92.636 C 106.312 92.183, 106 92.955, 106 96.331 M 131.665 94.175 C 131.352 95.371, 131.511 97.058, 132.018 97.925 C 132.966 99.546, 133.022 99.414, 133.364 94.750 C 133.605 91.476, 132.471 91.092, 131.665 94.175 M 49 95 C 47.793 95.780, 47.951 95.972, 49.809 95.985 C 51.097 95.993, 51.845 95.558, 51.500 95 C 50.757 93.798, 50.861 93.798, 49 95 M 86.117 95.906 C 84.950 96.646, 84.970 97.119, 86.246 98.941 C 87.747 101.084, 87.762 101.077, 88.206 98.050 C 88.679 94.827, 88.352 94.491, 86.117 95.906 M 73.338 97.750 C 73.599 98.987, 73.405 100, 72.906 100 C 72.408 100, 72.003 101.013, 72.006 102.250 C 72.012 104.316, 72.134 104.267, 73.499 101.649 C 74.591 99.556, 74.704 98.359, 73.924 97.149 C 73.032 95.764, 72.938 95.860, 73.338 97.750 M 166 99.500 C 166 100.325, 166.177 101, 166.393 101 C 166.609 101, 167.045 100.325, 167.362 99.500 C 167.678 98.675, 167.501 98, 166.969 98 C 166.436 98, 166 98.675, 166 99.500 M 64.500 99.833 C 64.225 100.108, 64.036 103.071, 64.079 106.417 C 64.122 109.763, 64.385 111.938, 64.662 111.250 C 64.940 110.563, 65.804 110, 66.583 110 C 67.628 110, 68 108.601, 68 104.667 C 68 100.593, 67.646 99.333, 66.500 99.333 C 65.675 99.333, 64.775 99.558, 64.500 99.833 M 113.891 100.206 C 114.596 101.145, 114.842 102.495, 114.439 103.206 C 113.849 104.248, 113.970 104.255, 115.060 103.243 C 116.191 102.193, 116.101 101.699, 114.512 100.243 C 112.799 98.674, 112.737 98.670, 113.891 100.206 M 55.015 101.036 C 55.041 103.506, 56.628 105.411, 57.493 104.011 C 57.903 103.348, 57.510 102.081, 56.618 101.190 C 55.269 99.840, 55.003 99.815, 55.015 101.036 M 125.336 101.567 C 125.005 102.429, 125.247 103.647, 125.873 104.273 C 126.725 105.125, 126.955 104.729, 126.788 102.706 C 126.532 99.611, 126.190 99.342, 125.336 101.567 M 130.863 100.894 C 131.690 101.418, 131.812 101.904, 131.172 102.129 C 130.592 102.333, 129.901 103.709, 129.637 105.186 C 129.278 107.188, 129.722 108.243, 131.381 109.330 C 133.525 110.735, 133.614 110.662, 133.840 107.300 C 134.158 102.591, 133.211 99.997, 131.183 100.015 C 129.851 100.027, 129.784 100.211, 130.863 100.894 M 92 104.378 C 92 105.685, 92.582 107.238, 93.293 107.829 C 94.319 108.680, 94.504 108.187, 94.184 105.451 C 93.730 101.564, 92 100.714, 92 104.378 M 107.241 106.986 C 105.507 109.762, 105.687 110.238, 108 109 C 109.100 108.411, 110 107.270, 110 106.465 C 110 104.401, 108.702 104.646, 107.241 106.986 M 53.500 111 C 53.160 111.550, 53.610 112, 54.500 112 C 55.390 112, 55.840 111.550, 55.500 111 C 55.160 110.450, 54.710 110, 54.500 110 C 54.290 110, 53.840 110.450, 53.500 111 M 99.500 111 C 99.160 111.550, 99.584 112, 100.441 112 C 101.298 112, 102 111.550, 102 111 C 102 110.450, 101.577 110, 101.059 110 C 100.541 110, 99.840 110.450, 99.500 111 M 83.667 113.667 C 82.405 114.928, 83.004 116, 84.969 116 C 86.308 116, 86.753 115.520, 86.362 114.500 C 85.746 112.896, 84.747 112.587, 83.667 113.667 M 73.631 117.278 C 72.134 118.775, 70.363 120, 69.695 120 C 69.027 120, 67.919 120.900, 67.232 122 C 65.513 124.753, 67.447 124.623, 70.972 121.750 C 72.490 120.513, 74.535 119.029, 75.517 118.453 C 76.499 117.878, 77.089 116.766, 76.827 115.982 C 76.469 114.907, 75.683 115.226, 73.631 117.278 M 112.638 118.500 C 112.955 119.325, 113.391 120, 113.607 120 C 113.823 120, 114 119.325, 114 118.500 C 114 117.675, 113.564 117, 113.031 117 C 112.499 117, 112.322 117.675, 112.638 118.500 M 121 117.965 C 121 119.157, 124.963 121.370, 125.728 120.605 C 126.554 119.779, 123.971 117, 122.378 117 C 121.620 117, 121 117.434, 121 117.965 M 93 120 C 93 120.550, 93.702 121, 94.559 121 C 95.416 121, 95.840 120.550, 95.500 120 C 95.160 119.450, 94.459 119, 93.941 119 C 93.423 119, 93 119.450, 93 120 M 100.813 121.683 C 101.534 121.972, 102.397 121.936, 102.729 121.604 C 103.061 121.272, 102.471 121.036, 101.417 121.079 C 100.252 121.127, 100.015 121.364, 100.813 121.683 M 78.496 123.007 C 77.741 124.228, 80.484 125.437, 81.952 124.530 C 82.528 124.173, 83 123.459, 83 122.941 C 83 121.680, 79.282 121.734, 78.496 123.007 M 110 125 C 110 125.550, 110.450 126, 111 126 C 111.550 126, 112 125.550, 112 125 C 112 124.450, 111.550 124, 111 124 C 110.450 124, 110 124.450, 110 125 M 72.500 127 C 72.160 127.550, 72.835 128, 74 128 C 75.165 128, 75.840 127.550, 75.500 127 C 75.160 126.450, 74.485 126, 74 126 C 73.515 126, 72.840 126.450, 72.500 127 M 61 127.941 C 61 128.459, 61.450 129.160, 62 129.500 C 62.550 129.840, 63 129.416, 63 128.559 C 63 127.702, 62.550 127, 62 127 C 61.450 127, 61 127.423, 61 127.941" stroke="none" fill="#f8dae2" fill-rule="evenodd"/><path d="M 98 31.441 C 98 33.334, 98.450 35.160, 99 35.500 C 99.604 35.873, 100 34.510, 100 32.059 C 100 29.827, 99.550 28, 99 28 C 98.450 28, 98 29.548, 98 31.441 M 108.493 30.172 C 108.124 31.640, 108.036 33.665, 108.295 34.671 C 108.676 36.145, 108.791 36.063, 108.884 34.250 C 109.037 31.276, 110.402 31.392, 111.818 34.500 C 113.268 37.681, 115 37.726, 115 34.582 C 115 33.252, 115.301 31.378, 115.670 30.418 C 116.127 29.227, 115.968 28.902, 115.170 29.395 C 114.526 29.793, 113.974 31.104, 113.941 32.309 C 113.886 34.368, 113.811 34.389, 112.691 32.663 C 109.237 27.338, 109.209 27.321, 108.493 30.172 M 76.238 31.832 C 75.249 32.460, 75.227 33.374, 76.136 36.066 C 76.775 37.955, 77.441 39.673, 77.617 39.885 C 78.389 40.815, 83 36.781, 83 35.177 C 83 31.753, 79.270 29.907, 76.238 31.832 M 77.667 32.667 C 76.751 33.582, 76.856 35.224, 77.939 36.936 C 79.424 39.282, 82.280 36.392, 80.944 33.895 C 79.891 31.928, 78.811 31.523, 77.667 32.667 M 123.336 33.567 C 123.005 34.429, 123.244 35.644, 123.867 36.267 C 125.681 38.081, 125.179 39.191, 122.875 38.460 C 121.445 38.006, 120.973 38.148, 121.434 38.893 C 122.312 40.315, 125.679 40.328, 126.554 38.913 C 126.923 38.315, 126.725 37.325, 126.113 36.713 C 124.385 34.985, 124.755 32.969, 126.664 33.701 C 127.783 34.131, 128.091 33.957, 127.605 33.170 C 126.568 31.492, 124.042 31.727, 123.336 33.567 M 64.276 37.124 C 63.443 37.957, 63.569 39.125, 64.761 41.624 C 66.597 45.476, 66.897 45.588, 69.559 43.418 C 71.347 41.961, 71.355 41.883, 69.660 42.422 C 66.872 43.308, 65.634 42.006, 67.690 40.352 C 69.388 38.986, 69.361 38.935, 67.250 39.516 C 64.798 40.190, 64.302 39.098, 66.200 37.200 C 66.867 36.533, 66.956 36, 66.400 36 C 65.850 36, 64.894 36.506, 64.276 37.124 M 134.738 39.867 C 133.782 41.485, 133.002 43.414, 133.004 44.154 C 133.006 44.894, 133.928 43.991, 135.052 42.146 C 136.177 40.301, 136.957 38.372, 136.786 37.859 C 136.615 37.345, 135.693 38.249, 134.738 39.867 M 54.558 43.906 C 54.248 44.408, 54.256 45.504, 54.577 46.340 C 55.010 47.469, 54.354 47.944, 52.038 48.181 L 48.915 48.500 51.917 52 C 53.568 53.925, 54.937 55.085, 54.959 54.579 C 54.982 54.072, 54.255 52.835, 53.345 51.829 C 51.790 50.111, 51.821 50, 53.845 50 C 55.184 50, 56 49.373, 56 48.345 C 56 46.857, 56.201 46.872, 58 48.500 C 60.778 51.014, 60.505 49.389, 57.561 45.891 C 56.220 44.297, 54.869 43.404, 54.558 43.906 M 142.750 45.080 C 140.354 46.475, 140.518 50.672, 143.021 52.011 C 144.132 52.606, 145.482 52.820, 146.021 52.487 C 147.334 51.675, 147.273 49, 145.941 49 C 145.359 49, 145.187 49.493, 145.559 50.096 C 145.980 50.776, 145.532 51.056, 144.380 50.835 C 141.951 50.367, 141.369 47.179, 143.559 46.339 C 144.497 45.979, 146.105 46.209, 147.132 46.851 C 149.216 48.152, 149.658 47.058, 147.800 45.200 C 146.355 43.755, 145.078 43.724, 142.750 45.080 M 152.500 56.555 C 149.991 58.683, 149.854 59.003, 151.666 58.509 C 154.296 57.792, 155.623 59.544, 153.964 61.544 C 151.904 64.026, 154.652 63.216, 157.694 60.444 C 160.176 58.182, 160.250 57.956, 158.334 58.484 C 155.705 59.209, 154.376 57.457, 156.036 55.456 C 157.991 53.101, 155.751 53.797, 152.500 56.555 M 42.183 56.217 C 40.349 58.051, 40.767 59.617, 43.581 61.461 C 46.249 63.209, 49 62.929, 49 60.909 C 49 60.057, 48.649 60.047, 47.658 60.869 C 45.974 62.266, 44.940 61.333, 45.756 59.152 C 46.271 57.777, 46.118 57.708, 44.845 58.741 C 42.940 60.288, 41.612 59.172, 43.151 57.318 C 44.592 55.581, 43.763 54.637, 42.183 56.217 M 34.500 69 C 33.647 70.650, 33.373 72, 33.891 72 C 34.409 72, 35.003 71.491, 35.211 70.868 C 35.471 70.087, 36.583 70.250, 38.794 71.394 C 40.557 72.305, 42 72.644, 42 72.147 C 42 71.650, 40.680 70.696, 39.067 70.028 C 37.208 69.258, 36.332 68.298, 36.674 67.407 C 37.677 64.794, 36.063 65.977, 34.500 69 M 163.633 67.486 C 164.007 68.460, 163.306 69.313, 161.602 69.961 C 160.171 70.505, 159 71.423, 159 72.001 C 159 72.636, 160.128 72.468, 161.851 71.577 C 163.998 70.467, 164.986 70.386, 165.851 71.251 C 167.316 72.716, 167.312 71.778, 165.839 68.547 C 164.620 65.870, 162.649 64.923, 163.633 67.486 M 30.667 79.667 C 30.300 80.033, 30 81.158, 30 82.167 C 30 84.107, 32.455 84.691, 33.500 83 C 34.534 81.327, 37.285 81.814, 36.618 83.552 C 36.277 84.442, 36.445 84.843, 37.011 84.493 C 38.279 83.710, 38.289 81.297, 37.028 80.517 C 36.494 80.187, 34.839 80.715, 33.351 81.689 C 30.675 83.443, 30.652 83.438, 31.229 81.231 C 31.847 78.871, 31.745 78.588, 30.667 79.667 M 166.667 79.667 C 166.300 80.033, 166 81.158, 166 82.167 C 166 83.175, 165.550 84, 165 84 C 164.450 84, 164 83.325, 164 82.500 C 164 81.675, 163.517 81, 162.927 81 C 160.860 81, 162.542 84.503, 164.760 84.820 C 166.461 85.062, 167 84.641, 167 83.070 C 167 80.809, 168.564 80.247, 169.280 82.250 C 169.525 82.938, 170.077 83.173, 170.506 82.774 C 170.934 82.375, 170.716 81.362, 170.020 80.524 C 168.646 78.869, 167.705 78.628, 166.667 79.667 M 63.564 86.293 C 63.940 87.279, 64.499 87.834, 64.807 87.526 C 65.115 87.219, 64.808 86.412, 64.124 85.733 C 63.136 84.753, 63.022 84.868, 63.564 86.293 M 88.624 87.539 C 88.281 88.432, 88.029 89.689, 88.063 90.332 C 88.098 90.974, 88.558 90.422, 89.085 89.105 C 89.612 87.787, 89.864 86.531, 89.645 86.312 C 89.426 86.093, 88.966 86.645, 88.624 87.539 M 102 87.059 C 102 87.641, 102.450 87.840, 103 87.500 C 103.550 87.160, 104 86.684, 104 86.441 C 104 86.198, 103.550 86, 103 86 C 102.450 86, 102 86.477, 102 87.059 M 69.459 89.067 C 69.096 89.653, 69.070 90.403, 69.400 90.733 C 69.730 91.063, 70 90.760, 70 90.060 C 70 89.319, 70.650 89.035, 71.552 89.382 C 72.442 89.723, 72.843 89.555, 72.493 88.989 C 71.693 87.694, 70.285 87.730, 69.459 89.067 M 109.459 91.067 C 109.096 91.653, 109.014 92.348, 109.276 92.610 C 109.538 92.872, 110.019 92.392, 110.345 91.543 C 111.021 89.781, 110.445 89.471, 109.459 91.067 M 77.535 96.587 C 76.603 98.009, 76.012 99.346, 76.223 99.556 C 76.433 99.766, 77.394 98.602, 78.359 96.969 C 80.514 93.321, 79.871 93.022, 77.535 96.587 M 83.381 97.250 C 82.976 97.938, 82.002 99.625, 81.217 101 C 79.846 103.400, 79.856 103.420, 81.468 101.500 C 83.499 99.080, 85.250 96, 84.594 96 C 84.332 96, 83.786 96.563, 83.381 97.250 M 61.813 99.683 C 62.534 99.972, 63.397 99.936, 63.729 99.604 C 64.061 99.272, 63.471 99.036, 62.417 99.079 C 61.252 99.127, 61.015 99.364, 61.813 99.683 M 117.872 100.750 C 116.629 102.336, 116.664 102.371, 118.250 101.128 C 119.916 99.821, 120.445 99, 119.622 99 C 119.415 99, 118.627 99.787, 117.872 100.750 M 134.813 101.683 C 135.534 101.972, 136.397 101.936, 136.729 101.604 C 137.061 101.272, 136.471 101.036, 135.417 101.079 C 134.252 101.127, 134.015 101.364, 134.813 101.683 M 121.872 104.750 C 120.629 106.336, 120.664 106.371, 122.250 105.128 C 123.916 103.821, 124.445 103, 123.622 103 C 123.415 103, 122.627 103.787, 121.872 104.750 M 133.257 113 C 133.740 114.774, 137 115.657, 137 114.014 C 137 113.392, 136.500 113.191, 135.888 113.569 C 135.277 113.947, 134.342 113.636, 133.812 112.878 C 133.019 111.745, 132.921 111.767, 133.257 113" stroke="none" fill="#322f30" fill-rule="evenodd"/><path d="M 95.250 20.689 C 96.213 20.941, 97.787 20.941, 98.750 20.689 C 99.713 20.438, 98.925 20.232, 97 20.232 C 95.075 20.232, 94.287 20.438, 95.250 20.689 M 105.813 20.683 C 106.534 20.972, 107.397 20.936, 107.729 20.604 C 108.061 20.272, 107.471 20.036, 106.417 20.079 C 105.252 20.127, 105.015 20.364, 105.813 20.683 M 85.813 21.683 C 86.534 21.972, 87.397 21.936, 87.729 21.604 C 88.061 21.272, 87.471 21.036, 86.417 21.079 C 85.252 21.127, 85.015 21.364, 85.813 21.683 M 112.813 21.683 C 113.534 21.972, 114.397 21.936, 114.729 21.604 C 115.061 21.272, 114.471 21.036, 113.417 21.079 C 112.252 21.127, 112.015 21.364, 112.813 21.683 M 81.813 22.683 C 82.534 22.972, 83.397 22.936, 83.729 22.604 C 84.061 22.272, 83.471 22.036, 82.417 22.079 C 81.252 22.127, 81.015 22.364, 81.813 22.683 M 115 23 C 113.172 24.181, 114.751 24.181, 117.500 23 C 118.819 22.433, 118.989 22.122, 118 22.086 C 117.175 22.055, 115.825 22.467, 115 23 M 77 23.383 C 77 23.594, 77.901 24.002, 79.001 24.290 C 80.102 24.578, 80.751 24.405, 80.442 23.907 C 79.904 23.036, 77 22.594, 77 23.383 M 119.558 23.907 C 119.249 24.405, 119.898 24.578, 120.999 24.290 C 123.334 23.679, 123.629 23, 121.559 23 C 120.766 23, 119.866 23.408, 119.558 23.907 M 69.554 25.902 C 67.650 26.647, 67.652 26.676, 69.637 27.195 C 70.943 27.536, 71.667 27.240, 71.667 26.363 C 71.667 25.613, 71.629 25.032, 71.583 25.070 C 71.537 25.109, 70.624 25.483, 69.554 25.902 M 128.558 26.907 C 128.249 27.405, 128.898 27.578, 129.999 27.290 C 132.334 26.679, 132.629 26, 130.559 26 C 129.766 26, 128.866 26.408, 128.558 26.907 M 139.234 31.294 C 140.188 32.066, 140.638 33.063, 140.234 33.509 C 139.831 33.955, 140.063 33.997, 140.750 33.601 C 142.479 32.606, 142.337 32.234, 139.750 30.980 C 137.731 30.002, 137.678 30.034, 139.234 31.294 M 51.603 36.833 C 51.320 37.292, 51.723 37.667, 52.500 37.667 C 53.277 37.667, 53.680 37.292, 53.397 36.833 C 53.114 36.375, 52.710 36, 52.500 36 C 52.290 36, 51.886 36.375, 51.603 36.833 M 112.733 37.124 C 113.412 37.808, 114.219 38.115, 114.526 37.807 C 114.834 37.499, 114.279 36.940, 113.293 36.564 C 111.868 36.022, 111.753 36.136, 112.733 37.124 M 123.564 37.293 C 123.940 38.279, 124.499 38.834, 124.807 38.526 C 125.115 38.219, 124.808 37.412, 124.124 36.733 C 123.136 35.753, 123.022 35.868, 123.564 37.293 M 146.603 36.833 C 146.320 37.292, 146.723 37.667, 147.500 37.667 C 148.277 37.667, 148.680 37.292, 148.397 36.833 C 148.114 36.375, 147.710 36, 147.500 36 C 147.290 36, 146.886 36.375, 146.603 36.833 M 43.165 44.333 C 40.102 47.434, 38.530 49.667, 39.409 49.667 C 41.233 49.667, 48.289 42.641, 48.601 40.514 C 48.723 39.681, 48.735 39, 48.627 39 C 48.520 39, 46.061 41.400, 43.165 44.333 M 151.398 40.506 C 151.710 42.630, 157.764 48.667, 159.583 48.667 C 160.487 48.667, 159.178 46.719, 156.336 43.833 C 153.717 41.175, 151.486 39, 151.376 39 C 151.267 39, 151.276 39.678, 151.398 40.506 M 43.453 45.250 L 39.500 49.500 43.750 45.547 C 47.702 41.871, 48.460 41, 47.703 41 C 47.540 41, 45.627 42.913, 43.453 45.250 M 155 44.500 C 156.866 46.425, 158.617 48, 158.892 48 C 159.167 48, 157.866 46.425, 156 44.500 C 154.134 42.575, 152.383 41, 152.108 41 C 151.833 41, 153.134 42.575, 155 44.500 M 101.813 45.683 C 102.534 45.972, 103.397 45.936, 103.729 45.604 C 104.061 45.272, 103.471 45.036, 102.417 45.079 C 101.252 45.127, 101.015 45.364, 101.813 45.683 M 86 47.018 C 83.694 47.772, 83.752 47.826, 86.750 47.705 C 88.537 47.633, 90 47.220, 90 46.787 C 90 45.870, 89.400 45.905, 86 47.018 M 146.379 47.379 C 146.506 48.239, 146.888 49.221, 147.229 49.563 C 147.571 49.904, 147.747 49.480, 147.621 48.621 C 147.494 47.761, 147.112 46.779, 146.771 46.437 C 146.429 46.096, 146.253 46.520, 146.379 47.379 M 57.500 49 C 58.495 50.100, 59.535 51, 59.810 51 C 60.085 51, 59.495 50.100, 58.500 49 C 57.505 47.900, 56.465 47, 56.190 47 C 55.915 47, 56.505 47.900, 57.500 49 M 112.750 47.662 C 113.438 47.940, 114.563 47.940, 115.250 47.662 C 115.938 47.385, 115.375 47.158, 114 47.158 C 112.625 47.158, 112.063 47.385, 112.750 47.662 M 75.446 51.087 C 75.077 51.685, 73.924 51.952, 72.886 51.680 C 71.847 51.409, 71.222 51.551, 71.497 51.996 C 71.773 52.441, 70.608 53.685, 68.909 54.761 C 66.400 56.349, 66.128 56.835, 67.462 57.347 C 68.365 57.694, 68.858 57.579, 68.558 57.093 C 68.003 56.195, 70.818 54.531, 72.324 54.866 C 72.778 54.967, 72.864 54.588, 72.515 54.025 C 72.167 53.461, 72.471 52.986, 73.191 52.968 C 74.812 52.929, 78.817 50, 77.250 50 C 76.627 50, 75.816 50.489, 75.446 51.087 M 122 50.447 C 122 50.693, 124.362 52.048, 127.250 53.458 C 130.137 54.867, 131.600 55.309, 130.500 54.440 C 129.400 53.570, 128.597 52.487, 128.716 52.032 C 128.835 51.577, 128.098 51.423, 127.079 51.690 C 126.060 51.956, 124.923 51.685, 124.554 51.087 C 123.900 50.028, 122 49.553, 122 50.447 M 36.138 52.333 C 35.311 53.330, 35.365 53.667, 36.349 53.667 C 37.074 53.667, 37.667 53.067, 37.667 52.333 C 37.667 51.600, 37.572 51, 37.456 51 C 37.340 51, 36.747 51.600, 36.138 52.333 M 162.333 52.333 C 162.333 53.067, 162.926 53.667, 163.651 53.667 C 164.635 53.667, 164.689 53.330, 163.862 52.333 C 163.253 51.600, 162.660 51, 162.544 51 C 162.428 51, 162.333 51.600, 162.333 52.333 M 33.603 55.833 C 33.320 56.292, 33.723 56.667, 34.500 56.667 C 35.277 56.667, 35.680 56.292, 35.397 55.833 C 35.114 55.375, 34.710 55, 34.500 55 C 34.290 55, 33.886 55.375, 33.603 55.833 M 155.459 56.067 C 155.096 56.653, 155.014 57.348, 155.276 57.610 C 155.538 57.872, 156.019 57.392, 156.345 56.543 C 157.021 54.781, 156.445 54.471, 155.459 56.067 M 164.603 55.833 C 164.320 56.292, 164.723 56.667, 165.500 56.667 C 166.277 56.667, 166.680 56.292, 166.397 55.833 C 166.114 55.375, 165.710 55, 165.500 55 C 165.290 55, 164.886 55.375, 164.603 55.833 M 134.092 58 C 134.825 59.375, 135.335 60.821, 135.224 61.214 C 135.114 61.607, 135.690 61.673, 136.504 61.360 C 137.325 61.045, 138.244 61.471, 138.569 62.319 C 139.046 63.563, 142 65.593, 142 64.677 C 142 64.534, 139.921 62.410, 137.380 59.958 C 134.100 56.793, 133.146 56.225, 134.092 58 M 151.507 58.989 C 151.157 59.555, 151.558 59.723, 152.448 59.382 C 154.180 58.717, 154.497 58, 153.059 58 C 152.541 58, 151.843 58.445, 151.507 58.989 M 62.314 60.750 C 61.264 61.712, 60.970 62.124, 61.659 61.664 C 62.348 61.204, 63.307 61.072, 63.790 61.370 C 64.272 61.668, 64.667 61.257, 64.667 60.456 C 64.667 58.627, 64.622 58.633, 62.314 60.750 M 54.414 69.491 C 53.516 70.862, 52.311 71.692, 51.736 71.337 C 51.134 70.965, 50.988 71.172, 51.392 71.825 C 51.777 72.448, 51.585 73.907, 50.965 75.065 C 50.345 76.223, 50.087 77.420, 50.391 77.724 C 50.695 78.029, 51.389 77.108, 51.932 75.679 C 52.476 74.249, 53.726 72.237, 54.710 71.207 C 56.454 69.381, 57.480 67, 56.523 67 C 56.261 67, 55.312 68.121, 54.414 69.491 M 143.333 68.456 C 143.333 69.257, 143.716 69.676, 144.183 69.387 C 144.650 69.098, 144.774 68.443, 144.457 67.931 C 143.649 66.623, 143.333 66.770, 143.333 68.456 M 148.714 77.014 C 149.004 78.124, 149.595 79.250, 150.027 79.517 C 150.460 79.784, 150.576 79.095, 150.286 77.986 C 149.996 76.876, 149.405 75.750, 148.973 75.483 C 148.540 75.216, 148.424 75.905, 148.714 77.014 M 23 78.941 C 23 79.459, 23.445 80.157, 23.989 80.493 C 24.555 80.843, 24.723 80.442, 24.382 79.552 C 23.717 77.820, 23 77.503, 23 78.941 M 82 82 C 82 83.111, 82.667 84, 83.500 84 C 85.183 84, 85.251 83.817, 84.393 81.582 C 83.536 79.347, 82 79.616, 82 82 M 90.755 80.937 C 88.468 81.406, 80 89.882, 80 91.702 C 80 91.968, 82.215 90.194, 84.923 87.760 C 87.630 85.325, 91.342 82.902, 93.173 82.375 C 97.060 81.254, 95.046 80.056, 90.755 80.937 M 101.500 81.046 C 99.632 81.806, 99.625 81.864, 101.382 81.930 C 103.513 82.009, 109.375 85.316, 112.769 88.354 L 115.039 90.385 113.446 87.193 C 112.570 85.437, 111.211 84, 110.427 84 C 109.642 84, 108.175 83.213, 107.167 82.250 C 104.973 80.156, 104.128 79.977, 101.500 81.046 M 117 81 C 117 81.550, 117.675 82, 118.500 82 C 119.325 82, 120 81.550, 120 81 C 120 80.450, 119.325 80, 118.500 80 C 117.675 80, 117 80.450, 117 81 M 130.872 81.750 C 129.603 83.369, 129.650 83.390, 131.500 82.033 C 132.600 81.226, 133.688 80.439, 133.917 80.283 C 134.146 80.127, 133.863 80, 133.289 80 C 132.715 80, 131.627 80.787, 130.872 81.750 M 73.777 84.117 C 75.959 87.563, 78 88.996, 78 87.083 C 78 86.487, 77.550 86, 77 86 C 76.450 86, 76 85.433, 76 84.741 C 76 84.048, 75.023 82.871, 73.829 82.125 L 71.657 80.769 73.777 84.117 M 47.687 83.734 C 47.438 84.155, 47.027 85.850, 46.773 87.500 C 46.518 89.150, 46.493 89.962, 46.718 89.305 C 46.942 88.648, 47.772 88.359, 48.563 88.662 C 49.581 89.053, 50 88.471, 50 86.666 C 50 84.125, 48.544 82.279, 47.687 83.734 M 152.100 86.691 C 152.045 88.446, 152.450 90.160, 153 90.500 C 154.150 91.211, 154.150 89.591, 153 86 C 152.235 83.613, 152.195 83.644, 152.100 86.691 M 142.356 89.501 C 142.169 92.746, 143.624 92.746, 144.245 89.500 C 144.523 88.046, 144.258 87, 143.611 87.001 C 143 87.001, 142.435 88.126, 142.356 89.501 M 59.788 89.233 C 59.372 90.244, 58.455 90.728, 57.586 90.395 C 55.549 89.613, 53.968 90.752, 54.644 92.514 C 55.053 93.580, 55.681 93.706, 57.019 92.990 C 58.304 92.302, 58.969 92.381, 59.282 93.258 C 60.052 95.412, 61.165 93.308, 60.825 90.341 C 60.571 88.124, 60.344 87.881, 59.788 89.233 M 21.031 89.500 C 21.031 90.050, 21.467 91.175, 22 92 C 22.533 92.825, 22.969 93.050, 22.969 92.500 C 22.969 91.950, 22.533 90.825, 22 90 C 21.467 89.175, 21.031 88.950, 21.031 89.500 M 138 90.500 C 138 91.325, 138.177 92, 138.393 92 C 138.609 92, 139.045 91.325, 139.362 90.500 C 139.678 89.675, 139.501 89, 138.969 89 C 138.436 89, 138 89.675, 138 90.500 M 177.624 90.539 C 176.659 93.053, 176.943 93.702, 178.122 91.675 C 178.706 90.671, 178.973 89.639, 178.715 89.382 C 178.458 89.124, 177.966 89.645, 177.624 90.539 M 64.070 94.143 C 64.022 97.352, 64.453 98.960, 65.468 99.349 C 66.275 99.659, 67.202 99.482, 67.527 98.956 C 67.852 98.430, 67.641 98, 67.059 98 C 66.477 98, 65.968 96.987, 65.930 95.750 C 65.891 94.513, 65.473 92.600, 65 91.500 C 64.350 89.987, 64.123 90.629, 64.070 94.143 M 116.964 92.836 C 117.623 94.120, 118.436 94.897, 118.771 94.562 C 119.107 94.227, 118.568 93.176, 117.574 92.226 C 115.846 90.576, 115.819 90.603, 116.964 92.836 M 28.882 92.750 C 28.816 93.162, 28.837 93.899, 28.927 94.387 C 29.017 94.875, 28.061 96.371, 26.802 97.711 C 24.644 100.008, 24.616 100.206, 26.317 101.158 C 27.681 101.921, 27.988 102.942, 27.574 105.334 L 27.025 108.500 28.276 105.840 C 29.407 103.433, 29.710 103.315, 31.454 104.590 C 33.329 105.961, 33.322 106, 31.191 106 C 29.986 106, 29 106.365, 29 106.811 C 29 107.258, 31.025 107.598, 33.500 107.566 C 35.975 107.535, 38 107.144, 38 106.696 C 38 106.248, 38.445 106.157, 38.989 106.493 C 39.555 106.843, 39.723 106.442, 39.382 105.552 C 39.054 104.698, 39.236 104, 39.786 104 C 41.365 104, 42.147 100.882, 40.935 99.421 C 40.330 98.692, 40.128 97.172, 40.486 96.043 C 41.307 93.458, 38.549 92.176, 35.827 93.876 C 34.777 94.531, 33.476 94.794, 32.935 94.460 C 32.393 94.125, 32.074 94.421, 32.225 95.116 C 32.376 95.812, 31.711 96.554, 30.747 96.765 C 29.246 97.093, 29.135 96.776, 29.972 94.574 C 30.607 92.904, 30.608 92, 29.975 92 C 29.439 92, 28.947 92.338, 28.882 92.750 M 163.036 93.456 C 162.369 94.261, 162.181 95.484, 162.617 96.189 C 163.706 97.952, 163.843 101, 162.833 101 C 162.037 101, 161.601 99.434, 161.906 97.676 C 161.985 97.222, 161.588 97.136, 161.025 97.485 C 159.581 98.377, 159.749 99.607, 161.564 101.421 C 162.424 102.281, 162.914 103.331, 162.652 103.753 C 161.598 105.460, 164.748 107.513, 168.750 107.727 C 172.725 107.939, 173.535 107.387, 173.118 104.750 C 173.053 104.338, 173.900 104, 175 104 C 176.111 104, 177 103.333, 177 102.500 C 177 101.675, 176.523 101, 175.941 101 C 175.359 101, 175.204 100.479, 175.597 99.842 C 176.092 99.042, 175.617 98.867, 174.057 99.275 C 172.817 99.599, 172.065 99.602, 172.386 99.281 C 172.706 98.960, 172.188 98.099, 171.234 97.368 C 169.779 96.252, 169.727 95.889, 170.909 95.112 C 172.864 93.826, 175.707 94.899, 173.834 96.215 C 172.755 96.973, 172.775 97.078, 173.938 96.764 C 174.728 96.550, 175.553 95.841, 175.771 95.188 C 176.354 93.439, 173.022 92.505, 170.907 93.826 C 169.902 94.454, 168.274 94.707, 167.290 94.389 C 165.824 93.916, 165.766 94, 166.972 94.852 C 168.236 95.746, 168.191 95.989, 166.655 96.579 C 165.671 96.957, 164.333 96.726, 163.683 96.065 C 162.770 95.140, 162.943 94.538, 164.441 93.433 C 165.509 92.645, 165.901 92, 165.314 92 C 164.726 92, 163.701 92.655, 163.036 93.456 M 67.583 93.866 C 67.152 94.563, 67.070 95.403, 67.400 95.733 C 68.295 96.628, 69.271 95.312, 68.787 93.862 C 68.449 92.846, 68.213 92.846, 67.583 93.866 M 86.564 94.707 C 86.022 96.132, 86.136 96.247, 87.124 95.267 C 87.808 94.588, 88.115 93.781, 87.807 93.474 C 87.499 93.166, 86.940 93.721, 86.564 94.707 M 133.079 94.583 C 133.127 95.748, 133.364 95.985, 133.683 95.188 C 133.972 94.466, 133.936 93.603, 133.604 93.271 C 133.272 92.939, 133.036 93.529, 133.079 94.583 M 35.393 95.854 C 34.431 96.978, 33.274 97.669, 32.822 97.390 C 32.370 97.110, 31.993 97.696, 31.985 98.691 C 31.972 100.246, 31.818 100.289, 30.890 99 C 30.024 97.796, 29.952 97.894, 30.525 99.500 C 30.917 100.600, 31.260 102.055, 31.286 102.734 C 31.321 103.643, 31.682 103.679, 32.654 102.872 C 33.380 102.269, 34.719 102.062, 35.629 102.411 C 36.867 102.886, 37.030 102.726, 36.278 101.773 C 35.176 100.378, 34.956 97, 35.967 97 C 36.315 97, 37.066 97.466, 37.635 98.035 C 38.349 98.749, 38.625 98.445, 38.523 97.056 C 38.296 93.979, 37.320 93.604, 35.393 95.854 M 49 95 C 47.793 95.780, 47.951 95.972, 49.809 95.985 C 51.097 95.993, 51.845 95.558, 51.500 95 C 50.757 93.798, 50.861 93.798, 49 95 M 137.786 97.706 C 137.575 99.518, 137.761 101, 138.201 101 C 138.640 101, 139 100.100, 139 99 C 139 97.889, 139.667 97, 140.500 97 C 141.325 97, 142 96.353, 142 95.562 C 142 94.762, 141.151 94.188, 140.085 94.269 C 138.704 94.373, 138.064 95.330, 137.786 97.706 M 45.310 100.500 C 45.315 103.800, 45.502 105.029, 45.725 103.232 C 45.947 101.435, 45.943 98.735, 45.715 97.232 C 45.486 95.729, 45.304 97.200, 45.310 100.500 M 153.914 95.250 C 153.303 97.019, 153.477 105, 154.127 105 C 154.607 105, 155 102.750, 155 100 C 155 97.250, 154.775 95, 154.500 95 C 154.225 95, 153.961 95.112, 153.914 95.250 M 72.006 97.750 C 72.003 98.987, 72.436 100, 72.969 100 C 73.501 100, 73.660 100.787, 73.321 101.750 C 72.863 103.053, 73.006 103.224, 73.882 102.421 C 74.780 101.597, 74.697 100.649, 73.535 98.421 C 72.153 95.770, 72.012 95.708, 72.006 97.750 M 92.639 97.694 C 91.654 98.680, 91.883 102, 92.937 102 C 93.452 102, 94.055 103.463, 94.277 105.250 C 94.557 107.507, 94.729 106.915, 94.840 103.309 C 94.990 98.449, 94.116 96.218, 92.639 97.694 M 131.079 98.143 C 131.036 99.047, 131.675 100.045, 132.500 100.362 C 133.558 100.767, 133.995 100.283, 133.985 98.719 C 133.973 97.085, 133.742 96.859, 133.106 97.863 C 132.377 99.014, 132.158 99.014, 131.700 97.863 C 131.303 96.866, 131.137 96.941, 131.079 98.143 M 166.100 97.938 C 165.458 98.335, 165.203 99.366, 165.534 100.229 C 165.865 101.092, 165.656 102.095, 165.068 102.458 C 163.662 103.327, 163.691 106, 165.107 106 C 165.743 106, 165.933 105.268, 165.554 104.280 C 165.191 103.335, 165.214 102.881, 165.605 103.272 C 165.996 103.663, 166.914 103.486, 167.645 102.879 C 168.376 102.273, 169.666 102.041, 170.510 102.366 C 171.812 102.865, 171.864 102.615, 170.854 100.727 C 170.198 99.502, 169.851 98.318, 170.081 98.095 C 170.854 97.349, 167.282 97.208, 166.100 97.938 M 99 105.062 C 99 109.874, 99.272 110.833, 100.500 110.362 C 101.325 110.045, 102.006 108.597, 102.014 107.143 C 102.021 105.689, 102.282 103.549, 102.594 102.388 C 103.015 100.820, 102.625 100.135, 101.081 99.731 C 99.147 99.226, 99 99.604, 99 105.062 M 55.015 101.036 C 55.041 103.506, 56.628 105.411, 57.493 104.011 C 57.903 103.348, 57.510 102.081, 56.618 101.190 C 55.269 99.840, 55.003 99.815, 55.015 101.036 M 38 102 C 38 102.550, 38.423 103, 38.941 103 C 39.459 103, 40.160 102.550, 40.500 102 C 40.840 101.450, 40.416 101, 39.559 101 C 38.702 101, 38 101.450, 38 102 M 106.153 104.804 L 105.905 108.479 108.024 106.204 C 109.190 104.953, 109.922 103.383, 109.651 102.715 C 109.274 101.785, 109.139 101.794, 109.079 102.750 C 109.036 103.438, 108.523 104, 107.941 104 C 107.359 104, 107.141 103.581, 107.457 103.069 C 107.774 102.557, 107.665 101.911, 107.216 101.634 C 106.767 101.356, 106.289 102.783, 106.153 104.804 M 113.667 101.667 C 113.300 102.033, 113 102.798, 113 103.367 C 113 103.993, 113.466 103.934, 114.183 103.217 C 114.834 102.566, 115.134 101.801, 114.850 101.517 C 114.566 101.233, 114.033 101.300, 113.667 101.667 M 173 102 C 173 102.550, 173.477 103, 174.059 103 C 174.641 103, 174.840 102.550, 174.500 102 C 174.160 101.450, 173.684 101, 173.441 101 C 173.198 101, 173 101.450, 173 102 M 34 104.333 C 34 105.260, 34.777 105.993, 35.750 105.985 C 36.749 105.976, 37.071 105.649, 36.500 105.223 C 35.950 104.813, 35.163 104.069, 34.750 103.572 C 34.337 103.074, 34 103.417, 34 104.333 M 169 104.333 C 169 105.260, 169.777 105.993, 170.750 105.985 C 171.749 105.976, 172.071 105.649, 171.500 105.223 C 170.950 104.813, 170.162 104.069, 169.750 103.572 C 169.338 103.074, 169 103.417, 169 104.333 M 75.575 108.654 C 70.380 114.726, 66.480 116.977, 61 117.064 C 56.903 117.129, 56.711 117.237, 58.861 118.270 C 60.739 119.172, 62.171 119.039, 65.861 117.616 C 68.412 116.632, 71.309 115.839, 72.297 115.855 C 73.310 115.871, 74.509 114.791, 75.045 113.381 C 75.568 112.005, 76.447 111.158, 76.998 111.499 C 77.549 111.839, 78 111.162, 78 109.993 C 78 108.825, 78.466 106.998, 79.035 105.934 C 80.572 103.063, 79.918 103.578, 75.575 108.654 M 21.624 108.539 C 21.281 109.432, 21.046 111.139, 21.102 112.332 C 21.167 113.702, 21.507 113.215, 22.026 111.007 C 22.899 107.290, 22.662 105.833, 21.624 108.539 M 177.031 107.500 C 177.031 108.050, 177.467 109.175, 178 110 C 178.533 110.825, 178.969 111.050, 178.969 110.500 C 178.969 109.950, 178.533 108.825, 178 108 C 177.467 107.175, 177.031 106.950, 177.031 107.500 M 69 110.500 C 66.499 113.162, 63.902 114.028, 66 111.500 C 66.860 110.464, 66.898 110, 66.122 110 C 65.505 110, 65 110.450, 65 111 C 65 112.892, 64.694 113.503, 63.099 114.798 C 62.023 115.672, 62.481 115.622, 64.500 114.643 C 67.186 113.342, 73.095 108, 71.849 108 C 71.574 108, 70.292 109.125, 69 110.500 M 122 109.698 C 122 110.967, 126.341 115, 127.707 115 C 128.979 115, 130.201 117.690, 129.194 118.271 C 128.812 118.492, 128.973 118.570, 129.550 118.444 C 130.128 118.319, 131.703 118.826, 133.050 119.573 C 134.398 120.319, 136.963 120.945, 138.750 120.965 C 140.537 120.984, 142 121.450, 142 122 C 142 122.550, 141.550 123, 141 123 C 140.450 123, 140 123.675, 140 124.500 C 140 125.433, 140.944 126, 142.500 126 C 144.333 126, 145 126.533, 145 128 C 145 129.100, 144.625 130, 144.167 130 C 143.708 130, 143.333 130.668, 143.333 131.484 C 143.333 132.549, 143.682 132.679, 144.569 131.942 C 145.433 131.226, 145.930 131.291, 146.219 132.158 C 146.488 132.965, 146.868 132.787, 147.305 131.648 C 147.761 130.460, 147.604 130.127, 146.819 130.612 C 146.034 131.097, 145.876 130.765, 146.330 129.583 C 146.703 128.610, 146.336 126.889, 145.500 125.696 C 143.174 122.376, 143.674 121.114, 148 119.383 C 150.200 118.503, 152 117.716, 152 117.635 C 152 117.553, 152.435 115.915, 152.968 113.993 C 153.797 110.999, 153.746 110.750, 152.608 112.250 C 150.934 114.455, 144.806 114.574, 141.586 112.464 C 139.554 111.133, 139.167 111.122, 138.684 112.381 C 137.995 114.177, 139.988 115, 145.023 115 C 149.601 115, 150.926 116.434, 147.863 118.073 C 142.282 121.060, 134.302 118.695, 125.250 111.373 C 123.463 109.927, 122 109.173, 122 109.698 M 130.500 110 C 130.840 110.550, 131.568 111, 132.118 111 C 132.668 111, 132.840 110.550, 132.500 110 C 132.160 109.450, 131.432 109, 130.882 109 C 130.332 109, 130.160 109.450, 130.500 110 M 46.682 112.500 C 47.629 117.119, 48.616 119.436, 49.204 118.421 C 49.498 117.914, 48.912 115.700, 47.903 113.500 C 46.347 110.111, 46.161 109.958, 46.682 112.500 M 53.500 111 C 53.160 111.550, 53.610 112, 54.500 112 C 55.390 112, 55.840 111.550, 55.500 111 C 55.160 110.450, 54.710 110, 54.500 110 C 54.290 110, 53.840 110.450, 53.500 111 M 83.667 113.667 C 82.405 114.928, 83.004 116, 84.969 116 C 86.308 116, 86.753 115.520, 86.362 114.500 C 85.746 112.896, 84.747 112.587, 83.667 113.667 M 56 114.861 C 56 115.335, 57.125 115.508, 58.500 115.245 C 59.875 114.982, 61 114.594, 61 114.383 C 61 114.173, 59.875 114, 58.500 114 C 57.125 114, 56 114.388, 56 114.861 M 73.631 117.278 C 72.134 118.775, 70.363 120, 69.695 120 C 69.027 120, 67.919 120.900, 67.232 122 C 65.513 124.753, 67.447 124.623, 70.972 121.750 C 72.490 120.513, 74.535 119.029, 75.517 118.453 C 76.499 117.878, 77.089 116.766, 76.827 115.982 C 76.469 114.907, 75.683 115.226, 73.631 117.278 M 142.250 116.689 C 143.213 116.941, 144.787 116.941, 145.750 116.689 C 146.713 116.438, 145.925 116.232, 144 116.232 C 142.075 116.232, 141.287 116.438, 142.250 116.689 M 112.638 118.500 C 112.955 119.325, 113.391 120, 113.607 120 C 113.823 120, 114 119.325, 114 118.500 C 114 117.675, 113.564 117, 113.031 117 C 112.499 117, 112.322 117.675, 112.638 118.500 M 121 117.965 C 121 119.157, 124.963 121.370, 125.728 120.605 C 126.554 119.779, 123.971 117, 122.378 117 C 121.620 117, 121 117.434, 121 117.965 M 23.459 120.067 C 23.096 120.653, 23.014 121.348, 23.276 121.610 C 23.538 121.872, 24.019 121.392, 24.345 120.543 C 25.021 118.781, 24.445 118.471, 23.459 120.067 M 56.731 119.602 C 56.430 119.904, 55.580 120.273, 54.842 120.424 C 52.501 120.902, 50 122.189, 50 122.916 C 50 123.302, 50.655 124.491, 51.455 125.559 C 52.838 127.404, 52.888 127.369, 52.455 124.860 C 52.024 122.357, 52.182 122.244, 55.500 122.692 C 58.174 123.052, 59 122.804, 59 121.641 C 59 119.979, 57.606 118.727, 56.731 119.602 M 93 120 C 93 120.550, 93.702 121, 94.559 121 C 95.416 121, 95.840 120.550, 95.500 120 C 95.160 119.450, 94.459 119, 93.941 119 C 93.423 119, 93 119.450, 93 120 M 175.564 120.293 C 175.940 121.279, 176.499 121.834, 176.807 121.526 C 177.115 121.219, 176.808 120.412, 176.124 119.733 C 175.136 118.753, 175.022 118.868, 175.564 120.293 M 100.813 121.683 C 101.534 121.972, 102.397 121.936, 102.729 121.604 C 103.061 121.272, 102.471 121.036, 101.417 121.079 C 100.252 121.127, 100.015 121.364, 100.813 121.683 M 78.496 123.007 C 77.741 124.228, 80.484 125.437, 81.952 124.530 C 82.528 124.173, 83 123.459, 83 122.941 C 83 121.680, 79.282 121.734, 78.496 123.007 M 147.595 123.895 C 146.531 125.070, 146.259 126.042, 146.885 126.429 C 147.443 126.774, 148.409 126.105, 149.031 124.942 C 150.544 122.116, 149.738 121.528, 147.595 123.895 M 110 125 C 110 125.550, 110.450 126, 111 126 C 111.550 126, 112 125.550, 112 125 C 112 124.450, 111.550 124, 111 124 C 110.450 124, 110 124.450, 110 125 M 72.500 127 C 72.160 127.550, 72.835 128, 74 128 C 75.165 128, 75.840 127.550, 75.500 127 C 75.160 126.450, 74.485 126, 74 126 C 73.515 126, 72.840 126.450, 72.500 127 M 61 127.941 C 61 128.459, 61.450 129.160, 62 129.500 C 62.550 129.840, 63 129.416, 63 128.559 C 63 127.702, 62.550 127, 62 127 C 61.450 127, 61 127.423, 61 127.941 M 172.564 129.293 C 172.940 130.279, 173.499 130.834, 173.807 130.526 C 174.115 130.219, 173.808 129.412, 173.124 128.733 C 172.136 127.753, 172.022 127.868, 172.564 129.293 M 55.586 130.862 C 55.015 131.785, 62.588 141, 63.918 141 C 64.330 141, 64.667 140.345, 64.667 139.544 C 64.667 138.743, 64.287 138.323, 63.822 138.610 C 62.660 139.328, 56.728 133.249, 57.450 132.080 C 57.771 131.562, 57.606 130.875, 57.085 130.553 C 56.564 130.231, 55.890 130.370, 55.586 130.862 M 139 136.333 C 139 137.785, 137.976 138.396, 135.917 138.174 C 135.596 138.139, 135.333 138.737, 135.333 139.502 C 135.333 140.555, 135.791 140.647, 137.223 139.881 C 139.298 138.770, 140.605 136.271, 139.624 135.290 C 139.281 134.947, 139 135.417, 139 136.333 M 68.733 145.124 C 69.412 145.808, 70.219 146.115, 70.526 145.807 C 70.834 145.499, 70.279 144.940, 69.293 144.564 C 67.868 144.022, 67.753 144.136, 68.733 145.124 M 129.029 144.961 C 128.220 145.473, 127.803 146.136, 128.102 146.435 C 128.401 146.735, 129.513 146.323, 130.573 145.521 C 132.681 143.926, 131.400 143.461, 129.029 144.961 M 161.543 146.931 C 161.226 147.443, 161.350 148.098, 161.817 148.387 C 162.284 148.676, 162.667 148.257, 162.667 147.456 C 162.667 145.770, 162.351 145.623, 161.543 146.931 M 75.388 148.162 C 75.765 150.092, 77.692 150.244, 78.400 148.401 C 78.924 147.034, 78.777 146.940, 77.620 147.900 C 76.637 148.717, 76.033 148.753, 75.672 148.017 C 75.370 147.400, 75.250 147.462, 75.388 148.162 M 124 147.892 C 124 148.566, 123.550 148.840, 123 148.500 C 122.450 148.160, 122 148.359, 122 148.941 C 122 149.523, 122.423 150, 122.941 150 C 124.176 150, 125.368 148.035, 124.600 147.267 C 124.270 146.937, 124 147.218, 124 147.892 M 41.500 152 C 42.495 153.100, 43.535 154, 43.810 154 C 44.085 154, 43.495 153.100, 42.500 152 C 41.505 150.900, 40.465 150, 40.190 150 C 39.915 150, 40.505 150.900, 41.500 152 M 115.559 151.532 C 114.491 152.339, 114.068 153, 114.618 153 C 115.168 153, 116.491 152.339, 117.559 151.532 C 118.626 150.724, 119.050 150.064, 118.500 150.064 C 117.950 150.064, 116.626 150.724, 115.559 151.532 M 157.405 152.105 C 156.357 153.263, 155.500 154.500, 155.500 154.855 C 155.500 155.210, 155.216 155.405, 154.869 155.290 C 154.522 155.174, 153.508 155.887, 152.615 156.873 C 151.270 158.359, 151.240 158.667, 152.440 158.667 C 153.237 158.667, 153.801 158.179, 153.694 157.583 C 153.588 156.988, 154.009 156.595, 154.631 156.710 C 155.253 156.826, 156.560 156.038, 157.536 154.960 C 158.512 153.882, 158.960 153, 158.533 153 C 158.105 153, 158.315 152.325, 159 151.500 C 160.901 149.209, 159.568 149.715, 157.405 152.105 M 84.500 152.525 C 86.150 153.286, 88.625 153.902, 90 153.892 C 92.247 153.875, 92.298 153.794, 90.500 153.088 C 89.400 152.655, 86.925 152.040, 85 151.721 L 81.500 151.139 84.500 152.525 M 110.500 153 C 108.592 153.820, 108.603 153.863, 110.750 153.930 C 111.987 153.968, 113 153.550, 113 153 C 113 152.450, 112.888 152.032, 112.750 152.070 C 112.612 152.109, 111.600 152.527, 110.500 153 M 100.500 154 L 94.500 154.664 100 154.817 C 103.025 154.901, 106.175 154.533, 107 154 C 107.825 153.467, 108.050 153.099, 107.500 153.183 C 106.950 153.267, 103.800 153.635, 100.500 154 M 47 157.500 C 48.292 158.875, 49.574 160, 49.849 160 C 50.124 160, 49.292 158.875, 48 157.500 C 46.708 156.125, 45.426 155, 45.151 155 C 44.876 155, 45.708 156.125, 47 157.500 M 51.613 163.183 C 51.902 163.650, 52.557 163.774, 53.069 163.457 C 54.377 162.649, 54.230 162.333, 52.544 162.333 C 51.743 162.333, 51.324 162.716, 51.613 163.183 M 146.613 163.183 C 146.902 163.650, 147.557 163.774, 148.069 163.457 C 149.377 162.649, 149.230 162.333, 147.544 162.333 C 146.743 162.333, 146.324 162.716, 146.613 163.183 M 140.543 165.931 C 140.226 166.443, 140.350 167.098, 140.817 167.387 C 141.284 167.676, 141.667 167.257, 141.667 166.456 C 141.667 164.770, 141.351 164.623, 140.543 165.931 M 97.250 179.716 C 98.763 179.945, 101.237 179.945, 102.750 179.716 C 104.263 179.487, 103.025 179.300, 100 179.300 C 96.975 179.300, 95.737 179.487, 97.250 179.716" stroke="none" fill="#f1e0e4" fill-rule="evenodd"/></svg>