<svg xmlns="http://www.w3.org/2000/svg" width="467" height="535" viewBox="0 0 467 535" version="1.1"><path d="M 286.259 26.705 C 281.978 27.530, 281.002 30.534, 280.974 42.973 C 280.944 56.445, 279.488 72.942, 277.884 77.970 C 277.265 79.912, 275.604 82.737, 274.192 84.250 C 270.311 88.408, 265.875 87.979, 255.792 82.468 C 222.212 64.117, 202.724 58.570, 172 58.618 C 146.284 58.659, 126.219 64.416, 105.695 77.645 C 97.680 82.811, 95.301 86.747, 97.556 91.109 C 98.310 92.566, 99.728 94.065, 100.709 94.442 C 103.531 95.525, 120.896 98.826, 140.949 102.091 C 160.061 105.203, 165.311 106.843, 167.148 110.277 C 168.904 113.557, 167.548 120.127, 163.141 129.693 C 157.415 142.123, 155.004 149.471, 154.327 156.548 C 153.808 161.979, 153.999 162.888, 156.205 165.452 C 159.449 169.224, 165.821 169.770, 180.857 167.565 C 204.028 164.167, 223.396 157.587, 242.500 146.624 C 263.624 134.502, 265.404 135.029, 273.375 155.769 C 278.488 169.073, 286.996 185.088, 294.538 195.605 C 302.001 206.012, 315.502 220.333, 321.725 224.442 C 332.231 231.381, 339.210 222.972, 346.572 194.500 C 349.420 183.487, 350.400 181.080, 352.983 178.750 C 358.236 174.012, 362.081 175.071, 379.639 186.091 C 385.766 189.937, 392.835 195.316, 395.349 198.044 C 403.934 207.364, 407.929 206.904, 408.792 196.496 C 409.773 184.670, 403.679 161.282, 396.493 149.291 C 387.465 134.227, 379.432 127.148, 360 117.135 C 342.918 108.333, 328.222 103.544, 310.500 101.003 C 299.011 99.357, 295.206 98.034, 292.415 94.717 C 289.053 90.722, 289.801 87.170, 296.778 74 C 312.359 44.586, 314.951 39.287, 314.975 36.801 C 315.039 29.998, 298.796 24.287, 286.259 26.705 M 26.768 268.725 C 28.565 268.947, 31.265 268.943, 32.768 268.715 C 34.271 268.486, 32.800 268.304, 29.500 268.310 C 26.200 268.315, 24.971 268.502, 26.768 268.725 M 427.280 268.736 C 429.909 268.943, 433.959 268.940, 436.280 268.731 C 438.601 268.521, 436.450 268.352, 431.500 268.355 C 426.550 268.358, 424.651 268.530, 427.280 268.736" stroke="none" fill="#97ca65" fill-rule="evenodd"/><path d="M 280.994 7.934 C 274.081 10.037, 267.805 15.367, 264.476 21.962 C 262.628 25.624, 261.142 39.885, 261.051 54.833 C 261.023 59.417, 260.663 63.012, 260.250 62.823 C 259.837 62.634, 254.973 60.161, 249.440 57.326 C 236.641 50.769, 217.976 44.407, 204.227 41.916 C 190.062 39.349, 166.132 38.385, 154.500 39.914 C 121.961 44.190, 87.426 61.160, 79.986 76.529 C 78.031 80.567, 77.091 90.336, 78.212 94.960 C 78.370 95.613, 76.700 96.859, 74.500 97.728 C 63.597 102.037, 45.955 116.975, 38.723 128.022 C 15.445 163.580, 12.383 231.610, 29.586 331 C 34.165 357.456, 42.869 387.422, 59.214 433 C 69.803 462.529, 77.329 475.595, 91.249 488.616 C 111.251 507.326, 141.320 519, 169.510 519 C 189.063 519, 200.119 515.485, 232.500 498.978 C 259.321 485.305, 280.591 472.667, 302 457.683 C 350.556 423.698, 405.246 377.649, 417.680 360.280 C 427.955 345.927, 437.264 322.985, 440.602 303.789 C 442.782 291.249, 442.068 270.690, 439.063 259.500 C 436.298 249.203, 430.423 237.382, 423.493 228.169 C 420.472 224.154, 418 220.632, 418 220.343 C 418 220.054, 419.551 218.006, 421.446 215.792 C 426.386 210.021, 428 204.379, 428 192.887 C 428 177.147, 424.140 162.245, 415.466 144.500 C 407.553 128.310, 399.531 118.806, 386.327 109.977 C 367.382 97.309, 344.750 87.715, 323.801 83.471 C 319.235 82.546, 315.349 81.648, 315.163 81.475 C 314.978 81.302, 318.128 74.937, 322.163 67.331 C 332.536 47.778, 334.002 43.906, 333.991 36.080 C 333.978 26.883, 330.230 20.398, 321.770 14.930 C 312.875 9.180, 304.851 6.982, 293.145 7.086 C 287.840 7.133, 282.372 7.515, 280.994 7.934 M 286.259 26.705 C 281.978 27.530, 281.002 30.534, 280.974 42.973 C 280.944 56.445, 279.488 72.942, 277.884 77.970 C 277.265 79.912, 275.604 82.737, 274.192 84.250 C 270.311 88.408, 265.875 87.979, 255.792 82.468 C 222.212 64.117, 202.724 58.570, 172 58.618 C 146.284 58.659, 126.219 64.416, 105.695 77.645 C 97.680 82.811, 95.301 86.747, 97.556 91.109 C 98.310 92.566, 99.728 94.065, 100.709 94.442 C 103.531 95.525, 120.896 98.826, 140.949 102.091 C 160.061 105.203, 165.311 106.843, 167.148 110.277 C 168.904 113.557, 167.548 120.127, 163.141 129.693 C 157.415 142.123, 155.004 149.471, 154.327 156.548 C 153.808 161.979, 153.999 162.888, 156.205 165.452 C 159.449 169.224, 165.821 169.770, 180.857 167.565 C 204.028 164.167, 223.396 157.587, 242.500 146.624 C 263.624 134.502, 265.404 135.029, 273.375 155.769 C 278.488 169.073, 286.996 185.088, 294.538 195.605 C 302.001 206.012, 315.502 220.333, 321.725 224.442 C 332.231 231.381, 339.210 222.972, 346.572 194.500 C 349.420 183.487, 350.400 181.080, 352.983 178.750 C 358.236 174.012, 362.081 175.071, 379.639 186.091 C 385.766 189.937, 392.835 195.316, 395.349 198.044 C 403.934 207.364, 407.929 206.904, 408.792 196.496 C 409.773 184.670, 403.679 161.282, 396.493 149.291 C 387.465 134.227, 379.432 127.148, 360 117.135 C 342.918 108.333, 328.222 103.544, 310.500 101.003 C 299.011 99.357, 295.206 98.034, 292.415 94.717 C 289.053 90.722, 289.801 87.170, 296.778 74 C 312.359 44.586, 314.951 39.287, 314.975 36.801 C 315.039 29.998, 298.796 24.287, 286.259 26.705 M 78.500 117.005 C 69.038 121.743, 55.893 135.358, 50.494 146.011 C 46.070 154.742, 40.193 177.123, 39.900 186.358 C 39.804 189.379, 39.770 189.404, 39 187 C 38.560 185.625, 38.214 202.950, 38.231 225.500 C 38.249 248.050, 38.595 264.925, 39 263 L 39.737 259.500 39.868 263.750 C 39.955 266.546, 39.572 268.005, 38.750 268.015 C 37.864 268.026, 37.910 268.290, 38.908 268.922 C 39.876 269.535, 41.014 275.378, 42.554 287.657 C 47.398 326.270, 52.947 352.389, 63.103 384.374 C 67.572 398.451, 70.231 406.356, 79.625 433.500 C 83.637 445.093, 91.593 460.091, 97.503 467.203 C 113.960 487.006, 142.663 500, 169.951 500 C 181.030 500, 190.383 497.631, 204.818 491.169 C 210.968 488.416, 216.007 486.464, 216.015 486.832 C 216.024 487.199, 216.361 487.007, 216.765 486.405 C 217.169 485.803, 221.775 483.121, 227 480.445 C 253.248 467, 283.663 447.898, 310.506 428 C 339.443 406.549, 381.940 371.067, 395.123 357.351 C 412.986 338.766, 425.810 299.954, 422.240 275.284 L 421.340 269.068 430.920 268.743 L 440.500 268.419 430.821 268.209 L 421.142 268 419.481 262.250 C 414.582 245.287, 399.267 226.248, 381.030 214.451 C 374.050 209.935, 369.204 208.811, 367.237 211.250 C 366.683 211.938, 365.181 214.975, 363.901 218 C 356.924 234.481, 346.489 247.292, 337.572 250.324 C 331.242 252.477, 328.575 252.434, 321.706 250.071 C 303.606 243.844, 279.318 218.329, 262.502 187.875 C 258.281 180.232, 253.996 173.533, 252.980 172.989 C 249.476 171.114, 245.202 172.017, 231.629 177.502 C 224.140 180.528, 217.672 182.931, 217.256 182.841 C 216.840 182.751, 215.221 183.204, 213.657 183.849 C 204.308 187.704, 179.241 192.036, 166.699 191.965 C 159.365 191.923, 149.966 190.040, 144.790 187.576 C 139.059 184.848, 133.471 178.133, 131.613 171.741 C 129.381 164.064, 129.603 157.331, 132.509 144.518 C 135.415 131.706, 135.569 128.712, 133.430 126.573 C 131.779 124.922, 131.362 124.802, 121 123.015 C 117.425 122.398, 108.743 120.343, 101.707 118.447 C 86.890 114.455, 83.956 114.272, 78.500 117.005 M 26.768 268.725 C 28.565 268.947, 31.265 268.943, 32.768 268.715 C 34.271 268.486, 32.800 268.304, 29.500 268.310 C 26.200 268.315, 24.971 268.502, 26.768 268.725" stroke="none" fill="#080606" fill-rule="evenodd"/><path d="M 78.500 117.005 C 69.038 121.743, 55.893 135.358, 50.494 146.011 C 46.070 154.742, 40.193 177.123, 39.900 186.358 C 39.804 189.379, 39.770 189.404, 39 187 C 38.560 185.625, 38.214 202.950, 38.231 225.500 C 38.249 248.050, 38.609 264.925, 39.031 263 C 39.763 259.661, 39.802 259.730, 39.883 264.500 C 39.930 267.250, 41.054 277.600, 42.381 287.500 C 47.862 328.408, 53.082 352.815, 63.103 384.374 C 67.572 398.451, 70.231 406.356, 79.625 433.500 C 83.637 445.093, 91.593 460.091, 97.503 467.203 C 113.960 487.006, 142.663 500, 169.951 500 C 181.030 500, 190.383 497.631, 204.818 491.169 C 210.968 488.416, 216.007 486.464, 216.015 486.832 C 216.024 487.199, 216.361 487.007, 216.765 486.405 C 217.169 485.803, 221.775 483.121, 227 480.445 C 253.248 467, 283.663 447.898, 310.506 428 C 339.443 406.549, 381.940 371.067, 395.123 357.351 C 412.998 338.754, 425.810 299.957, 422.235 275.250 C 421.602 270.871, 421.656 268.995, 422.416 268.985 C 423.063 268.976, 422.998 268.651, 422.253 268.178 C 421.568 267.742, 420.287 264.937, 419.407 261.943 C 414.474 245.158, 399.113 226.148, 381.030 214.451 C 374.050 209.935, 369.204 208.811, 367.237 211.250 C 366.683 211.938, 365.181 214.975, 363.901 218 C 356.924 234.481, 346.489 247.292, 337.572 250.324 C 331.242 252.477, 328.575 252.434, 321.706 250.071 C 303.606 243.844, 279.318 218.329, 262.502 187.875 C 258.281 180.232, 253.996 173.533, 252.980 172.989 C 249.476 171.114, 245.202 172.017, 231.629 177.502 C 224.140 180.528, 217.672 182.931, 217.256 182.841 C 216.840 182.751, 215.221 183.204, 213.657 183.849 C 204.308 187.704, 179.241 192.036, 166.699 191.965 C 159.365 191.923, 149.966 190.040, 144.790 187.576 C 139.059 184.848, 133.471 178.133, 131.613 171.741 C 129.381 164.064, 129.603 157.331, 132.509 144.518 C 135.415 131.706, 135.569 128.712, 133.430 126.573 C 131.779 124.922, 131.362 124.802, 121 123.015 C 117.425 122.398, 108.743 120.343, 101.707 118.447 C 86.890 114.455, 83.956 114.272, 78.500 117.005 M 90.304 176.956 C 86.493 179.280, 84.467 182.290, 83.620 186.885 C 82.106 195.097, 87.232 202.312, 95.455 203.546 C 107.211 205.309, 115.665 193.103, 110.160 182.314 C 106.637 175.408, 97.075 172.828, 90.304 176.956 M 224.094 222.262 C 215.618 225.343, 212.712 238.807, 219.064 245.568 C 223.516 250.307, 232.929 251.243, 238.622 247.512 C 245.980 242.691, 245.496 228.643, 237.798 223.605 C 234.508 221.452, 228.060 220.820, 224.094 222.262 M 155.209 249.975 C 151.092 250.962, 148.121 253.563, 146.362 257.718 C 144.509 262.097, 144.682 265.702, 146.990 270.788 C 151.054 279.742, 164.422 280.635, 170.912 272.385 C 173.467 269.137, 173.771 260.391, 171.483 255.967 C 168.987 251.140, 161.636 248.433, 155.209 249.975 M 364.514 266.168 C 357.023 272.060, 357.394 285.142, 365.190 290.033 C 370.081 293.102, 378.926 292.403, 382.858 288.636 C 389.670 282.110, 388.672 269.467, 381.033 265.517 C 376.536 263.191, 367.863 263.533, 364.514 266.168 M 63.799 272.729 C 59.459 275.420, 57.653 279.799, 58.193 286.318 C 58.716 292.624, 60.613 295.477, 65.718 297.638 C 76.626 302.255, 86.885 294.567, 85.739 282.636 C 85.338 278.466, 84.651 277.068, 81.643 274.312 C 78.415 271.353, 77.415 271.003, 72.265 271.027 C 68.655 271.043, 65.490 271.679, 63.799 272.729 M 257.310 291.355 C 254.026 294.365, 253.610 295.317, 253.269 300.605 C 252.810 307.742, 255.192 312.347, 260.490 314.560 C 274.049 320.226, 285.800 307.917, 279.502 294.644 C 277.248 289.896, 273.548 288, 266.535 288 C 261.616 288, 260.546 288.389, 257.310 291.355 M 191.445 316.068 C 182.573 318.647, 179.426 332.503, 186.100 339.606 C 190.932 344.750, 201.201 344.953, 206.151 340.003 C 213.909 332.244, 210.995 318.867, 200.917 315.976 C 196.966 314.843, 195.615 314.856, 191.445 316.068 M 116.357 338.312 C 113.359 341.059, 112.661 342.471, 112.265 346.591 C 111.294 356.699, 116.796 362.989, 126.615 362.996 C 132.334 363, 136 360.834, 138.520 355.961 C 140.761 351.627, 140.403 344.894, 137.720 340.912 C 134.737 336.486, 131.661 335.033, 125.235 335.015 C 120.659 335.002, 119.498 335.433, 116.357 338.312 M 312 343.704 C 308.993 344.798, 304.945 349.491, 304.023 352.952 C 303.044 356.628, 303.805 361.899, 305.873 365.763 C 308.764 371.164, 320.423 373.280, 325.754 369.371 C 333.869 363.421, 333.900 349.958, 325.810 345.026 C 322.622 343.082, 315.565 342.406, 312 343.704 M 231.190 377.026 C 225.391 380.561, 223.391 390.257, 227.050 397.094 C 229.909 402.436, 240.634 404.792, 247.033 401.483 C 252.771 398.516, 255.163 388.084, 251.659 381.308 C 248.546 375.287, 237.747 373.028, 231.190 377.026 M 156.116 410.656 C 152.504 412.496, 149.044 418.535, 149.044 423 C 149.044 427.798, 152.683 433.969, 156.436 435.538 C 160.958 437.427, 167.319 437.403, 171.033 435.483 C 178.871 431.430, 179.964 416.959, 172.817 411.869 C 168.648 408.901, 160.696 408.323, 156.116 410.656 M 107.258 430.705 C 106.026 430.942, 103.680 432.474, 102.046 434.107 C 94.501 441.653, 98.295 455.713, 108.495 458.003 C 113.774 459.188, 119.669 457.786, 122.873 454.582 C 125.009 452.445, 125.497 450.893, 125.818 445.208 C 126.169 438.998, 125.968 438.115, 123.537 435.227 C 119.961 430.977, 114.178 429.370, 107.258 430.705 M 190.415 454.421 C 185.324 456.638, 183 460.481, 183 466.685 C 183 476.439, 187.668 481.231, 197.173 481.231 C 205.635 481.231, 210.227 476.446, 210.356 467.493 C 210.448 461.160, 208.312 457.497, 202.929 454.752 C 198.871 452.682, 194.664 452.571, 190.415 454.421" stroke="none" fill="#e91c45" fill-rule="evenodd"/></svg>