<?xml version="1.0" standalone="no"?>
<!DOCTYPE svg PUBLIC "-//W3C//DTD SVG 20010904//EN"
 "http://www.w3.org/TR/2001/REC-SVG-20010904/DTD/svg10.dtd">
<svg version="1.0" xmlns="http://www.w3.org/2000/svg"
 width="400.000000pt" height="400.000000pt" viewBox="0 0 400.000000 400.000000"
 preserveAspectRatio="xMidYMid meet">

<g transform="translate(0.000000,400.000000) scale(0.100000,-0.100000)"
fill="#000000" stroke="none">
<path d="M990 3725 c-420 -98 -736 -418 -816 -830 -19 -94 -18 -325 1 -414 84
-400 379 -708 778 -813 119 -32 385 -32 504 0 299 78 556 283 687 549 79 159
109 292 108 478 -1 176 -23 288 -88 434 -21 48 -33 43 -70 -30 -23 -46 -23
-49 -8 -91 8 -24 24 -83 35 -133 41 -177 12 -412 -72 -584 -232 -478 -812
-671 -1276 -425 -207 109 -364 290 -448 514 -70 186 -71 418 -3 615 28 81 101
222 138 265 136 158 227 226 415 311 11 5 56 19 100 31 68 19 104 22 235 21
137 0 165 -3 240 -26 146 -44 292 -124 381 -210 l36 -34 37 46 38 46 -49 44
c-119 109 -305 200 -482 237 -82 17 -344 16 -421 -1z"/>
<path d="M2620 3728 c-293 -62 -548 -240 -699 -487 -175 -288 -201 -668 -66
-968 27 -62 28 -62 45 -40 33 42 52 89 47 116 -3 14 -17 68 -31 120 -36 134
-42 234 -21 355 40 232 131 406 287 551 122 113 255 187 413 228 98 25 327 30
415 8 313 -76 552 -275 670 -556 75 -181 93 -401 46 -585 -33 -131 -103 -276
-168 -352 -13 -14 -30 -35 -39 -45 -70 -81 -175 -162 -276 -213 -205 -103
-427 -128 -644 -74 -147 37 -266 98 -381 196 -31 26 -58 48 -61 48 -2 0 -18
-20 -36 -45 -38 -53 -39 -51 53 -124 112 -88 237 -150 391 -193 69 -19 103
-22 255 -22 147 1 188 4 255 22 195 53 340 136 481 277 86 86 164 182 164 202
0 4 6 14 13 22 24 29 87 184 109 271 32 127 32 379 -1 504 -105 404 -409 695
-814 781 -77 17 -334 19 -407 3z"/>
<path d="M1334 3513 c-16 -21 -31 -42 -36 -47 -4 -5 -15 1 -26 14 -10 12 -24
21 -31 19 -9 -3 -6 -13 9 -32 12 -15 25 -25 30 -22 16 10 42 -8 37 -26 -3 -10
4 -26 15 -36 19 -17 20 -17 34 2 8 10 14 27 14 36 0 21 55 35 89 24 32 -10 26
-35 -8 -35 -26 0 -30 -3 -28 -27 1 -19 12 -34 31 -46 31 -20 32 -35 2 -137
-39 -135 2 -186 69 -85 26 39 35 45 66 45 40 0 79 33 79 66 0 11 11 30 25 42
36 32 32 48 -22 76 -18 9 -40 27 -49 41 -13 19 -20 23 -34 15 -23 -12 -35 2
-44 53 -8 40 -20 45 -73 27 -41 -15 -77 1 -93 39 -7 17 -16 31 -21 31 -4 0
-20 -17 -35 -37z"/>
<path d="M1172 3501 c-7 -4 -23 -6 -36 -4 -13 3 -28 -2 -35 -11 -12 -14 -11
-16 6 -16 29 0 83 20 83 31 0 11 -1 11 -18 0z"/>
<path d="M3075 3476 c-15 -19 -36 -36 -47 -38 -22 -3 -30 -15 -45 -63 -7 -24
-15 -31 -40 -33 -27 -3 -33 -8 -40 -40 -7 -30 -13 -36 -30 -34 -11 2 -23 -4
-26 -13 -4 -8 -13 -15 -20 -15 -8 0 -20 -7 -27 -15 -7 -8 -19 -15 -27 -15 -8
0 -24 -12 -37 -27 -16 -18 -28 -24 -41 -20 -15 6 -15 10 -4 23 11 14 10 19
-10 35 -45 37 -69 35 -107 -7 -48 -53 -81 -103 -89 -136 -6 -24 -4 -28 15 -28
13 0 29 -8 36 -17 12 -16 15 -16 24 -3 6 8 8 28 5 44 -5 28 20 86 38 86 4 0 5
-16 1 -35 -6 -34 -6 -35 27 -35 l34 0 -32 -26 c-18 -14 -33 -31 -33 -39 0 -7
-7 -16 -16 -19 -22 -8 -71 -8 -77 2 -2 4 -2 1 -1 -5 2 -7 0 -13 -4 -13 -5 0
-18 -9 -30 -20 -12 -11 -34 -25 -49 -31 l-28 -10 24 -18 c25 -19 21 -41 -7
-41 -31 0 -44 -15 -36 -43 9 -37 59 -39 68 -3 14 58 67 73 106 31 23 -24 50
-33 50 -17 0 4 -9 15 -20 25 -11 9 -20 22 -20 28 0 16 58 -29 65 -51 8 -27 25
-26 18 1 -5 17 -2 20 18 17 13 -2 23 -9 21 -16 -1 -6 3 -12 9 -12 5 0 7 -4 4
-10 -4 -6 8 -10 29 -10 31 0 36 -3 36 -24 0 -30 -27 -41 -64 -26 -39 15 -76
13 -76 -4 0 -13 -4 -13 -27 0 -16 7 -34 14 -40 14 -7 0 -13 7 -13 15 0 18 -2
18 -92 3 -94 -15 -132 -49 -141 -125 -11 -99 59 -174 149 -158 16 3 43 2 59
-3 24 -7 30 -14 30 -38 1 -16 10 -54 22 -84 12 -30 24 -68 27 -85 3 -16 14
-52 25 -80 20 -52 26 -54 87 -40 21 5 74 76 74 100 0 7 12 27 27 44 22 25 26
38 24 78 -2 43 2 52 34 88 67 72 71 95 18 95 -32 0 -43 7 -69 38 -48 58 -66
90 -62 109 2 12 16 0 50 -45 25 -34 48 -67 50 -74 5 -13 84 28 107 56 18 22 5
36 -27 30 -23 -5 -30 -1 -42 20 -18 34 -9 41 29 22 16 -9 39 -16 50 -16 11 0
24 -11 30 -27 7 -16 21 -46 33 -68 l20 -39 20 39 c12 22 36 55 55 73 28 28 37
32 48 22 8 -7 15 -19 15 -26 0 -7 11 -20 24 -29 12 -8 35 -38 50 -66 16 -28
30 -48 33 -45 3 2 -2 15 -11 28 -21 29 -21 44 0 27 14 -11 18 -10 30 6 17 23
18 40 3 67 -13 25 -3 33 52 42 29 5 42 13 54 36 20 39 19 58 -5 98 -22 36 -25
58 -10 67 18 11 49 -15 58 -48 8 -29 9 -30 16 -10 4 14 1 31 -9 46 -13 20 -13
26 -2 35 7 6 14 26 15 44 3 43 17 56 32 28 18 -33 21 -19 6 30 -9 31 -22 51
-44 65 -31 20 -37 43 -19 72 10 16 -22 62 -43 63 -19 0 -40 54 -40 102 0 43
-12 54 -67 63 -32 5 -46 13 -55 33 -10 20 -28 30 -78 44 -36 10 -68 18 -72 18
-4 0 -19 -15 -33 -34z"/>
<path d="M1108 3447 c-24 -11 -25 -14 -13 -30 18 -25 75 -15 75 13 0 14 -21
33 -33 30 -1 -1 -14 -6 -29 -13z"/>
<path d="M1006 3408 c-23 -33 -20 -37 19 -31 41 7 48 -12 13 -41 l-21 -19 24
-18 c18 -13 21 -21 13 -29 -18 -18 -49 -8 -46 15 3 23 -63 91 -73 75 -11 -18
-59 -11 -73 11 -7 11 -18 18 -25 16 -7 -2 -22 -1 -33 4 -12 4 -37 4 -55 -1
-19 -5 -45 -12 -59 -14 -25 -6 -130 -97 -130 -113 1 -4 7 -19 15 -33 9 -18 10
-29 3 -37 -15 -18 -4 -16 37 7 35 20 106 35 103 22 -1 -4 9 -29 21 -55 18 -39
21 -54 12 -78 -7 -22 -6 -38 4 -63 15 -36 14 -50 -13 -102 -15 -30 -14 -34 11
-83 15 -28 27 -59 27 -70 0 -10 7 -34 15 -52 l15 -34 -6 40 c-6 36 -5 38 9 25
26 -25 57 -89 47 -95 -18 -11 40 -57 80 -62 26 -4 44 -14 58 -33 11 -15 34
-30 51 -33 27 -6 31 -11 31 -39 0 -18 -9 -41 -20 -53 l-21 -22 23 -42 c14 -27
37 -50 60 -62 21 -11 38 -22 38 -25 0 -3 -7 -19 -16 -36 -12 -23 -13 -36 -6
-53 7 -14 7 -37 1 -61 -12 -53 -11 -108 2 -121 8 -8 8 -17 -1 -32 -9 -18 -7
-29 11 -61 13 -22 25 -40 29 -40 3 0 7 23 7 51 1 60 28 126 55 135 13 4 17 11
13 25 -5 15 -1 19 18 19 30 0 54 26 59 64 2 23 13 36 46 55 56 34 74 62 75
118 l2 46 -61 19 c-45 13 -64 24 -72 43 -6 13 -26 31 -44 38 -18 8 -39 21 -46
30 -25 29 -76 40 -116 23 -34 -14 -36 -14 -51 7 -8 12 -15 27 -15 34 0 7 -7
13 -15 13 -9 0 -15 9 -15 25 0 27 -17 34 -26 10 -4 -9 -19 -15 -36 -15 -29 0
-29 1 -24 38 3 20 5 43 6 50 0 6 9 12 19 12 11 0 23 5 26 10 3 6 21 10 39 10
24 0 36 -6 46 -25 16 -31 34 -21 27 15 -5 24 3 35 64 89 57 51 74 62 94 57 33
-8 41 11 14 33 -25 20 -18 41 14 41 14 0 28 -11 39 -30 24 -42 45 -39 51 8 4
26 0 45 -14 64 -10 15 -19 44 -19 64 0 35 -1 36 -18 21 -25 -23 -29 -21 -36 9
-5 20 -12 25 -33 22 -22 -2 -29 -10 -34 -35 -3 -18 -19 -50 -35 -70 -28 -37
-29 -38 -32 -13 -2 14 -14 36 -26 50 -36 39 -37 55 -6 91 25 30 31 33 49 22
30 -19 50 -16 44 5 -5 20 36 72 57 72 9 0 21 -10 29 -22 12 -19 11 -23 -5 -35
-10 -7 -24 -13 -31 -13 -19 0 -16 -18 6 -30 32 -17 56 -12 84 18 25 26 26 29
11 50 -8 12 -19 20 -23 18 -4 -3 -8 7 -9 22 -6 73 -24 102 -64 102 -14 0 -18
-8 -18 -38 0 -41 -29 -80 -49 -67 -15 9 -13 47 4 69 22 29 18 38 -12 34 -25
-3 -28 -7 -31 -45 -3 -42 -4 -43 -38 -43 -39 0 -47 22 -14 40 32 17 26 60 -13
91 -60 48 -74 52 -91 27z"/>
<path d="M1200 3410 c0 -22 20 -33 82 -44 52 -9 42 15 -18 43 -55 26 -64 26
-64 1z"/>
<path d="M2816 3397 c-9 -7 -21 -30 -26 -52 -13 -54 -12 -65 3 -65 9 0 12 11
9 33 -2 24 3 39 22 59 27 28 21 46 -8 25z"/>
<path d="M538 3173 c7 -3 16 -2 19 1 4 3 -2 6 -13 5 -11 0 -14 -3 -6 -6z"/>
<path d="M2278 3153 c-19 -5 -24 -18 -9 -27 15 -10 72 6 68 18 -4 12 -32 17
-59 9z"/>
<path d="M2393 3031 c3 -12 -1 -22 -9 -25 -24 -9 -17 -35 8 -28 14 3 19 2 14
-6 -8 -14 3 -15 21 -4 10 6 9 16 -5 45 -18 38 -38 51 -29 18z"/>
<path d="M3570 2943 c0 -12 -7 -28 -15 -36 -13 -13 -13 -16 1 -21 21 -8 40 36
25 60 -10 18 -10 18 -11 -3z"/>
<path d="M3522 2865 c0 -16 2 -22 5 -12 2 9 2 23 0 30 -3 6 -5 -1 -5 -18z"/>
<path d="M3400 2653 c0 -12 5 -25 10 -28 13 -8 13 15 0 35 -8 12 -10 11 -10
-7z"/>
<path d="M1069 2646 c13 -16 69 -31 78 -22 6 6 -58 36 -78 36 -8 0 -8 -4 0
-14z"/>
<path d="M3081 2584 c0 -11 3 -14 6 -6 3 7 2 16 -1 19 -3 4 -6 -2 -5 -13z"/>
<path d="M3415 2590 c-3 -5 -1 -10 4 -10 6 0 11 5 11 10 0 6 -2 10 -4 10 -3 0
-8 -4 -11 -10z"/>
<path d="M3250 2558 c0 -4 6 -13 13 -20 7 -7 21 -24 30 -38 9 -13 17 -20 17
-14 0 11 -59 83 -60 72z"/>
<path d="M3340 2535 c-10 -12 -10 -19 -2 -27 14 -14 17 -11 26 20 8 25 -5 29
-24 7z"/>
<path d="M3462 2481 c12 -20 48 -36 48 -21 0 8 -44 40 -55 40 -3 0 0 -9 7 -19z"/>
<path d="M3418 2413 c-7 -10 -33 -28 -57 -40 -39 -19 -46 -28 -57 -68 -11 -45
-11 -46 10 -40 72 21 82 19 100 -19 17 -36 56 -51 56 -23 0 8 9 22 19 31 16
15 19 28 15 71 -2 30 -8 64 -13 77 -9 23 -9 23 -16 -5 -6 -23 -10 -25 -22 -15
-8 6 -12 20 -10 30 6 23 -8 23 -25 1z"/>
<path d="M2907 2363 c-5 -7 -6 -17 -3 -22 3 -5 -2 -8 -12 -7 -13 1 -18 -8 -20
-41 -4 -53 12 -56 33 -6 16 38 18 100 2 76z"/>
<path d="M3555 2220 c-3 -5 -1 -10 4 -10 6 0 11 5 11 10 0 6 -2 10 -4 10 -3 0
-8 -4 -11 -10z"/>
<path d="M3139 1231 c-85 -22 -184 -71 -232 -117 -53 -49 -113 -145 -133 -212
-25 -83 -25 -279 -1 -350 57 -162 200 -273 388 -303 126 -20 337 1 395 38 19
12 52 99 42 109 -2 2 -24 -10 -48 -27 -147 -97 -341 -86 -457 27 -83 82 -123
189 -123 334 0 218 95 383 249 437 54 19 168 16 216 -6 39 -17 105 -81 105
-101 0 -6 6 -10 13 -10 16 0 62 129 50 140 -13 11 -94 38 -151 49 -78 16 -236
12 -313 -8z"/>
<path d="M402 858 l3 -363 28 -57 c70 -143 204 -209 392 -193 44 3 96 11 115
18 64 21 136 73 168 123 62 93 65 114 70 492 l4 342 -51 0 -51 0 0 -327 c0
-352 -4 -382 -53 -459 -52 -81 -118 -117 -217 -118 -104 0 -158 41 -192 144
-20 60 -22 91 -26 413 l-4 347 -95 0 -94 0 3 -362z"/>
<path d="M1336 1209 c4 -6 10 -25 15 -43 4 -17 31 -107 59 -201 28 -93 56
-185 61 -202 18 -64 29 -100 79 -268 29 -93 54 -182 57 -198 5 -26 7 -27 73
-27 64 0 68 1 78 28 6 15 36 95 67 177 31 83 62 166 70 185 7 19 35 90 61 158
26 68 50 120 54 115 4 -4 15 -35 25 -68 9 -33 23 -80 30 -105 8 -25 39 -130
69 -235 83 -282 68 -255 143 -255 62 0 64 1 77 33 16 36 54 134 151 387 70
182 117 304 167 428 16 41 32 80 35 88 5 12 -5 15 -53 12 l-58 -3 -22 -60
c-13 -33 -48 -130 -79 -215 -32 -85 -67 -182 -80 -215 -12 -33 -35 -93 -50
-132 -25 -68 -45 -93 -45 -57 0 9 -20 84 -44 167 -24 84 -65 229 -91 322 -26
94 -48 176 -51 183 -2 8 -32 12 -105 12 -84 0 -100 -2 -96 -14 19 -50 26 -95
18 -122 -9 -28 -52 -146 -106 -289 -33 -89 -85 -235 -92 -258 -9 -30 -21 -19
-36 36 -19 70 -95 339 -143 509 l-39 138 -103 0 c-74 0 -101 -3 -96 -11z"/>
</g>
</svg>
